<svg width="80" height="80" viewBox="0 0 80 80" fill="none" xmlns="http://www.w3.org/2000/svg">
<path d="M79.5 40C79.5 61.8152 61.8152 79.5 40 79.5C18.1848 79.5 0.5 61.8152 0.5 40C0.5 18.1848 18.1848 0.5 40 0.5C61.8152 0.5 79.5 18.1848 79.5 40Z" stroke="black"/>
<path fill-rule="evenodd" clip-rule="evenodd" d="M58.68 62.52L40.76 67.64L22.84 62.52L19 19H62.52C61.24 33.505 59.96 48.015 58.68 62.52ZM59.725 21.56H21.795L25.235 60.54L40.76 64.98L56.285 60.54L59.725 21.56ZM30.265 47.16H35.385L35.51 50.36L40.76 52.15L46.01 50.36L46.39 44.6H35.13L34.87 39.48H46.65L47.03 34.36H29.37L28.985 29.24H52.41L51.77 39.48L50.87 54.2L40.76 57.53L30.65 54.2L30.265 47.16Z" fill="black"/>
</svg>
