<svg width="80" height="80" viewBox="0 0 80 80" fill="none" xmlns="http://www.w3.org/2000/svg">
<path d="M40 13.12C40.725 13.12 41.405 13.4 41.915 13.915L66.085 38.085C67.145 39.14 67.145 40.86 66.085 41.915L41.915 66.085C41.405 66.6 40.725 66.88 40 66.88C39.275 66.88 38.595 66.6 38.085 66.085L13.915 41.915C12.855 40.86 12.855 39.14 13.915 38.085L29.685 22.315L32.595 25.225C31.895 27.825 32.6 30.66 34.57 32.63C35.04 33.1 35.575 33.505 36.16 33.84V46.165C33.83 47.51 32.32 50.015 32.32 52.8C32.32 57.035 35.765 60.48 40 60.48C44.235 60.48 47.68 57.035 47.68 52.8C47.68 50.015 46.17 47.51 43.84 46.165V36.47L45.395 38.025C44.695 40.625 45.4 43.46 47.37 45.43C48.82 46.88 50.75 47.68 52.8 47.68C54.85 47.68 56.78 46.88 58.23 45.43C61.225 42.435 61.225 37.565 58.23 34.57C56.785 33.125 54.87 32.33 52.825 32.33C52.15 32.33 51.475 32.42 50.825 32.595L47.405 29.175C48.105 26.575 47.4 23.74 45.43 21.77C43.985 20.325 42.07 19.53 40.025 19.53C39.35 19.53 38.675 19.62 38.025 19.795L35.115 16.885L38.085 13.915C38.595 13.4 39.275 13.12 40 13.12ZM40 10.56C38.65 10.56 37.3 11.075 36.275 12.105L31.495 16.885L37.41 22.8C38.215 22.33 39.12 22.09 40.025 22.09C41.325 22.09 42.625 22.585 43.62 23.58C45.305 25.265 45.55 27.825 44.395 29.785L50.21 35.6C51.015 35.13 51.92 34.89 52.825 34.89C54.125 34.89 55.425 35.385 56.42 36.38C58.42 38.38 58.42 41.62 56.42 43.62C55.42 44.62 54.11 45.12 52.8 45.12C51.49 45.12 50.18 44.62 49.18 43.62C47.495 41.935 47.25 39.375 48.405 37.41L42.59 31.595C42.175 31.84 41.735 32.02 41.28 32.135V47.86C43.485 48.43 45.12 50.415 45.12 52.8C45.12 55.63 42.83 57.92 40 57.92C37.175 57.92 34.88 55.63 34.88 52.8C34.88 50.415 36.515 48.43 38.72 47.86V32.135C37.865 31.915 37.05 31.49 36.38 30.82C34.695 29.135 34.45 26.575 35.605 24.615L29.685 18.695L12.105 36.275C10.045 38.33 10.045 41.67 12.105 43.725L36.275 67.895C37.3 68.925 38.65 69.44 40 69.44C41.35 69.44 42.7 68.925 43.725 67.895L67.895 43.725C69.955 41.67 69.955 38.33 67.895 36.275L43.725 12.105C42.7 11.075 41.35 10.56 40 10.56Z" fill="black"/>
<path d="M79.5 40C79.5 61.8153 61.8153 79.5 40 79.5C18.1848 79.5 0.5 61.8153 0.5 40C0.5 18.1848 18.1848 0.5 40 0.5C61.8153 0.5 79.5 18.1848 79.5 40Z" stroke="black"/>
</svg>
