<svg width="80" height="80" viewBox="0 0 80 80" fill="none" xmlns="http://www.w3.org/2000/svg">
<path d="M18.52 17.96L22.36 61.48L40.28 66.6L58.2 61.48C59.48 46.9738 60.76 32.4662 62.04 17.96H18.52ZM21.315 20.52H59.245L55.805 59.5025L40.28 63.9375L24.755 59.5025L21.315 20.52ZM30.745 28.2L29.515 43.56H46.1425L45.6175 49.96L40.28 50.7525L35.0075 49.96L34.775 47.4H29.835L30.335 53.8L40.2675 56.36L50.2125 53.8L51.48 38.44H35.275L35.685 33.32H46.385L46.68 35.88H51.415L50.52 28.2H30.745Z" fill="black"/>
<path d="M79.5 40C79.5 61.8153 61.8153 79.5 40 79.5C18.1848 79.5 0.5 61.8153 0.5 40C0.5 18.1848 18.1848 0.5 40 0.5C61.8153 0.5 79.5 18.1848 79.5 40Z" stroke="black"/>
</svg>
