<svg width="80" height="80" viewBox="0 0 80 80" fill="none" xmlns="http://www.w3.org/2000/svg">
<path d="M20.8585 17C19.2932 17 18 18.2932 18 19.8585V59.1415C18 60.7068 19.2932 62 20.8585 62H60.1415C61.7068 62 63 60.7109 63 59.1415V19.8585C63 18.2932 61.7109 17 60.1415 17H20.8585ZM20.8585 19.1429H60.1415C60.5391 19.1429 60.8571 19.4609 60.8571 19.8585V59.1415C60.8571 59.5391 60.5391 59.8571 60.1415 59.8571H20.8585C20.4609 59.8571 20.1429 59.5391 20.1429 59.1415V19.8585C20.1429 19.4609 20.4609 19.1429 20.8585 19.1429ZM38.3571 37.3571V50.8295C38.3571 52.897 37.5745 53.4286 36.2143 53.4286C34.7913 53.4286 33.8036 52.5413 33.1507 51.3903L29.7857 53.4286C30.7609 55.4919 33.1507 57.7143 36.4654 57.7143C40.1317 57.7143 42.6429 55.764 42.6429 51.4824V37.3571H38.3571ZM51.6998 37.3571C48.0502 37.3571 45.7107 39.6925 45.7107 42.7603C45.7107 46.0876 47.6735 47.6613 50.6242 48.9169L51.6454 49.3563C53.5078 50.1724 54.4286 50.6705 54.4286 52.0725C54.4286 53.2402 53.5413 54.0857 51.8463 54.0857C49.829 54.0857 48.8747 52.7171 48 51.2857L44.7857 53.4286C45.9869 55.8016 48.1423 57.7143 51.9383 57.7143C55.8223 57.7143 58.7143 55.697 58.7143 52.0181C58.7143 48.603 56.7556 47.0837 53.2776 45.5938L52.2564 45.1585C50.5028 44.3968 49.7411 43.9029 49.7411 42.6766C49.7411 41.6847 50.5028 40.923 51.6998 40.923C52.8758 40.923 53.6292 41.421 54.3281 42.6766L57.5131 40.6342C56.1696 38.2612 54.2988 37.3571 51.6998 37.3571Z" fill="black"/>
<path d="M79.5 40C79.5 61.8153 61.8153 79.5 40 79.5C18.1848 79.5 0.5 61.8153 0.5 40C0.5 18.1848 18.1848 0.5 40 0.5C61.8153 0.5 79.5 18.1848 79.5 40Z" stroke="black"/>
</svg>
