<svg width="80" height="80" viewBox="0 0 80 80" fill="none" xmlns="http://www.w3.org/2000/svg">
<path d="M36 67C35.596 67 35.224 66.754 35.071 66.368C33.081 61.347 29.377 52 26.625 52C25.339 52 24.067 52.824 24.055 52.832C23.709 53.064 23.254 53.056 22.916 52.811L10.416 43.811C10.122 43.599 9.965 43.243 10.007 42.882C10.049 42.521 10.284 42.212 10.62 42.074L27.086 35.316C27.821 34.231 30.674 30.255 33.766 29.066C34.233 28.886 34.623 28.74 34.955 28.616C36.628 27.989 36.628 27.989 37.908 26.786L38.191 26.52C39.93 24.89 43.248 19.767 44.274 18.101C44.392 17.908 44.518 17.696 44.651 17.472C45.768 15.584 47.297 13 49.625 13C52.295 13 53.713 15.751 55.291 19.349C56.741 22.656 60.614 33.607 62.198 38.306C66.008 49.613 69.859 57.481 69.898 57.559C70.093 57.956 70.004 58.435 69.678 58.736C69.353 59.037 68.869 59.088 68.487 58.859C68.406 58.811 66.469 57.637 63.293 54.457C60.937 52.099 59.017 51 57.25 51C54.141 51 51.945 53.472 49.164 56.603L48.998 56.79C48.668 57.161 48.305 57.587 47.909 58.05C45.149 61.281 40.979 66.165 36.169 66.987C36.112 66.996 36.055 67 36 67ZM26.625 50C30.318 50 33.239 56.372 36.613 64.835C40.419 63.74 43.98 59.57 46.388 56.751C46.793 56.277 47.166 55.84 47.503 55.461L47.669 55.274C50.66 51.907 53.243 49 57.25 49C60.28 49 62.827 51.161 64.708 53.043C65.305 53.641 65.855 54.163 66.354 54.616C64.848 51.182 62.565 45.657 60.303 38.944C58.668 34.092 54.828 23.272 53.46 20.151C51.994 16.811 50.949 15 49.625 15C48.437 15 47.144 17.185 46.371 18.491C46.232 18.726 46.1 18.948 45.976 19.149C45.935 19.216 41.857 25.825 39.559 27.98L39.278 28.244C37.751 29.68 37.65 29.743 35.658 30.489C35.331 30.612 34.946 30.756 34.484 30.934C32.069 31.863 29.412 35.386 28.592 36.665C28.481 36.838 28.32 36.973 28.13 37.051L13.046 43.241L23.565 50.814C24.241 50.47 25.39 50 26.625 50Z" fill="black"/>
<path d="M23.926 52.905L23.073 51.096C23.135 51.067 29.265 48.101 34.035 40.708C38.566 33.685 40.804 28.201 42.006 25.255C42.312 24.505 42.546 23.935 42.725 23.565C43.165 22.654 43.59 21.558 44.04 20.397C45.45 16.76 46.909 13 49.625 13V15C48.278 15 46.906 18.537 45.905 21.12C45.44 22.319 45 23.452 44.526 24.435C44.359 24.78 44.144 25.312 43.858 26.012C42.631 29.018 40.348 34.613 35.716 41.793C30.619 49.692 24.197 52.777 23.926 52.905Z" fill="black"/>
<path d="M34.15 42.175L27.15 36.925L28.35 35.325L35.35 40.575L34.15 42.175Z" fill="black"/>
<path d="M46.173 53.946C49.292 50.435 52.241 47.116 57 47.003C57 47.003 53.625 32.125 50.75 19.875C50.166 17.386 49.933 17 49.69 17C49.525 17 49.329 17.365 49.174 18.206C48.343 22.697 44.415 39.422 41.25 47.5C40.041 50.586 37.879 52.401 36 53.25C35.14 53.639 33.9 54 33.9 54C35.201 56.279 36.437 59.08 37.709 62.202C40.395 60.689 43.022 57.612 44.867 55.452C45.281 54.967 45.663 54.521 46.009 54.131L46.173 53.946Z" fill="#707070"/>
<path d="M79.5 40C79.5 61.8152 61.8152 79.5 40 79.5C18.1848 79.5 0.5 61.8152 0.5 40C0.5 18.1848 18.1848 0.5 40 0.5C61.8152 0.5 79.5 18.1848 79.5 40Z" stroke="black"/>
</svg>
