<svg width="80" height="80" viewBox="0 0 80 80" fill="none" xmlns="http://www.w3.org/2000/svg">
<path d="M52.6016 20C52.2876 20 52 20.2516 52 20.6016V31.5938L49.5078 30.1406C49.3518 30.0486 49.176 30.0039 49 30.0039C48.824 30.0039 48.6482 30.0486 48.4922 30.1406L42.5039 33.6328C42.1919 33.8128 42 34.1459 42 34.5039V41.4961C42 41.8561 42.1919 42.1872 42.5039 42.3672L48.4922 45.8594C48.6482 45.9514 48.824 45.9961 49 45.9961C49.176 45.9961 49.3518 45.9514 49.5078 45.8594L55.4961 42.3672C55.8081 42.1872 56 41.8541 56 41.4961V38V34.5039V22.4609C56 22.1049 55.8099 21.7777 55.5039 21.5977L52.8984 20.082C52.8004 20.026 52.7016 20 52.6016 20ZM33 30.0039C32.8245 30.0039 32.6492 30.0496 32.4922 30.1406L26.5039 33.6328C26.1919 33.8128 26 34.1459 26 34.5039V41.4961C26 41.8561 26.1919 42.1872 26.5039 42.3672L32.4922 45.8594C32.8062 46.0414 33.1938 46.0414 33.5078 45.8594L39.4961 42.3672C39.8081 42.1872 40 41.8541 40 41.4961V34.5039C40 34.1439 39.8081 33.8128 39.4961 33.6328L33.5078 30.1406C33.3508 30.0496 33.1755 30.0039 33 30.0039ZM65 30.0039C64.824 30.0039 64.6482 30.0486 64.4922 30.1406L58.5039 33.6328C58.1919 33.8128 58 34.1459 58 34.5039V41.4961C58 41.8561 58.1919 42.1872 58.5039 42.3672L64.3125 45.8789C64.6245 46.0689 65.016 46.0707 65.332 45.8867L68.1875 44.2266C68.4835 44.0566 68.4855 43.6271 68.1875 43.4531L62 39.8086V36.2188L65 34.4727L68 36.2188V38.7188C68 39.0527 68.2808 39.1042 68.4688 38.9922C69.2248 38.5482 71.5039 37.2266 71.5039 37.2266C71.8099 37.0486 72 36.7193 72 36.3633V34.5039C72 34.1439 71.8081 33.8128 71.4961 33.6328L65.5078 30.1406C65.3498 30.0486 65.176 30.0039 65 30.0039ZM17 30.0078C16.824 30.0078 16.6482 30.0525 16.4922 30.1445L10.5039 33.6328C10.1919 33.8148 10 34.1478 10 34.5078V43.4336C10 43.8696 10.4717 44.1399 10.8477 43.9219L13.5039 42.375C13.8099 42.195 14 41.8677 14 41.5117V36.2266L17 34.4766L20 36.2266V41.5117C20 41.8677 20.1901 42.195 20.4961 42.375L23.1523 43.9219C23.5283 44.1419 24 43.8696 24 43.4336V34.5078C24 34.1478 23.8081 33.8148 23.4961 33.6328L17.5078 30.1445C17.3518 30.0525 17.176 30.0078 17 30.0078ZM49 34.4727L52 36.2227V38V39.7773L49 41.5273L46 39.7773V36.2227L49 34.4727ZM65 36.0078L63.2852 37.0078V39.0039L65 40L66.7148 39.0039V37.0078L65 36.0078ZM40.8125 43.9961C40.6068 43.9961 40.3988 44.0464 40.2188 44.1484L34.5938 47.3984C34.2237 47.6024 34 48.0039 34 48.4219V54.9141C34 55.3321 34.2337 55.7255 34.5938 55.9375L36.0742 56.7812C36.7842 57.1312 37.0452 57.1328 37.3672 57.1328C38.4272 57.1328 39.0312 56.4989 39.0312 55.3789V48.9648C39.0312 48.8668 38.9552 48.7969 38.8672 48.7969H38.1562C38.0583 48.7969 37.9883 48.8768 37.9883 48.9648V55.3789C37.9883 55.8649 37.4747 56.3633 36.6367 55.9453L35.0977 55.0586C35.0477 55.0286 35.0117 54.9682 35.0117 54.9102V48.418C35.0117 48.36 35.0397 48.2917 35.0977 48.2617L40.7227 45.0195C40.7827 44.9895 40.8504 44.9895 40.8984 45.0195L46.5273 48.2617C46.5853 48.2917 46.6133 48.35 46.6133 48.418V54.9102C46.6133 54.9782 46.5753 55.0364 46.5273 55.0664L40.8984 58.3203C40.8484 58.3503 40.7707 58.3503 40.7227 58.3203L39.2852 57.4648C39.2472 57.4448 39.1864 57.4331 39.1484 57.4531C38.7504 57.6871 38.6708 57.7178 38.3008 57.8438C38.2028 57.8737 38.0696 57.9338 38.3516 58.0898L40.2188 59.1992C40.4048 59.2972 40.6085 59.3555 40.8125 59.3555C41.0265 59.3555 41.2344 59.2974 41.3984 59.1914L47.0234 55.9375C47.3934 55.7335 47.6172 55.3321 47.6172 54.9141V48.4219C47.6172 48.0039 47.3834 47.6124 47.0234 47.3984L41.3984 44.1484C41.2234 44.0464 41.0182 43.9961 40.8125 43.9961ZM49.5859 46.9922C49.0119 46.9922 48.5078 47.4563 48.5078 48.0703C48.5078 48.6643 48.9919 49.1523 49.5859 49.1523C50.1799 49.1523 50.6641 48.6643 50.6641 48.0703C50.6641 47.4563 50.1699 46.9822 49.5859 46.9922ZM49.5742 47.1641C50.0822 47.1641 50.4922 47.5643 50.4922 48.0703C50.4922 48.5663 50.0802 48.9763 49.5742 48.9883C49.0762 48.9883 48.6719 48.5763 48.6719 48.0703C48.6719 47.5643 49.0782 47.1641 49.5742 47.1641ZM49.1797 47.457V48.6719H49.4102V48.1875H49.625C49.713 48.1875 49.7339 48.225 49.7539 48.293C49.7539 48.303 49.7908 48.6178 49.8008 48.6758H50.0508C50.0228 48.6178 50.0022 48.4516 49.9922 48.3516C49.9642 48.1956 49.9551 48.0881 49.7891 48.0781C49.8771 48.0481 50.0234 48.0013 50.0234 47.7773C50.0234 47.4553 49.7437 47.457 49.5977 47.457H49.1797ZM49.4102 47.6523H49.6055C49.6655 47.6523 49.7812 47.6504 49.7812 47.8164C49.7812 47.8844 49.7518 47.9942 49.5938 47.9922H49.4102V47.6523ZM42.3203 48.6445C40.7143 48.6445 39.7617 49.329 39.7617 50.457C39.7617 51.693 40.7159 52.0237 42.2539 52.1797C44.0939 52.3637 44.2383 52.6283 44.2383 52.9883C44.2383 53.6203 43.731 53.8828 42.543 53.8828C41.053 53.8828 40.7252 53.5134 40.6172 52.7734C40.6072 52.6954 40.5372 52.6367 40.4492 52.6367H39.7188C39.6308 52.6367 39.5547 52.7067 39.5547 52.8047C39.5547 53.7487 40.0693 54.8789 42.5312 54.8789C44.3372 54.8769 45.3594 54.1772 45.3594 52.9492C45.3594 51.7332 44.5406 51.4098 42.8086 51.1758C41.0566 50.9418 40.8828 50.8241 40.8828 50.4141C40.8828 50.0741 41.0263 49.6289 42.3203 49.6289C43.4783 49.6289 43.9099 49.8822 44.0859 50.6602C44.1059 50.7382 44.1603 50.7852 44.2383 50.7852H44.9688C45.0168 50.7852 45.0579 50.7663 45.0859 50.7383C45.1159 50.7003 45.135 50.6613 45.125 50.6133C45.009 49.2693 44.1223 48.6445 42.3203 48.6445Z" fill="black"/>
<path d="M79.5 40C79.5 61.8153 61.8153 79.5 40 79.5C18.1848 79.5 0.5 61.8153 0.5 40C0.5 18.1848 18.1848 0.5 40 0.5C61.8153 0.5 79.5 18.1848 79.5 40Z" stroke="black"/>
</svg>
