<svg width="80" height="80" viewBox="0 0 80 80" fill="none" xmlns="http://www.w3.org/2000/svg">
<path d="M40 10.56C34.805 10.56 31.28 11.8 29.04 13.6C26.8 15.4 25.92 17.715 25.92 19.64V25.92H38.72V27.2H19.64C17.3 27.2 14.925 28.215 13.24 30.36C11.555 32.505 10.56 35.705 10.56 40C10.56 44.295 11.555 47.495 13.24 49.64C14.925 51.785 17.3 52.8 19.64 52.8H25.92V60.36C25.92 62.285 26.8 64.6 29.04 66.4C31.28 68.2 34.805 69.44 40 69.44C45.195 69.44 48.72 68.2 50.96 66.4C53.2 64.6 54.08 62.285 54.08 60.36V54.08H41.28V52.8H60.36C62.7 52.8 65.075 51.785 66.76 49.64C68.445 47.495 69.44 44.295 69.44 40C69.44 35.705 68.445 32.505 66.76 30.36C65.075 28.215 62.7 27.2 60.36 27.2H54.08V19.64C54.08 17.665 53.205 15.345 50.96 13.56C48.715 11.775 45.19 10.56 40 10.56ZM40 13.12C44.795 13.12 47.7 14.24 49.36 15.56C51.02 16.88 51.52 18.415 51.52 19.64V34.88C51.52 37 49.8 38.72 47.68 38.72H32.32C29.685 38.72 27.415 40.345 26.44 42.64C26.275 43.02 26.125 43.425 26.04 43.84C25.955 44.255 25.92 44.68 25.92 45.12V50.24H19.64C18.015 50.24 16.51 49.605 15.28 48.04C14.05 46.475 13.12 43.895 13.12 40C13.12 36.105 14.05 33.525 15.28 31.96C16.51 30.395 18.015 29.76 19.64 29.76H41.28V23.36H28.48V19.64C28.48 18.495 28.975 16.935 30.64 15.6C32.305 14.265 35.21 13.12 40 13.12ZM33.6 16.96C32.19 16.96 31.04 18.11 31.04 19.52C31.04 20.93 32.19 22.08 33.6 22.08C35.01 22.08 36.16 20.93 36.16 19.52C36.16 18.11 35.01 16.96 33.6 16.96ZM54.08 29.76H60.36C61.985 29.76 63.49 30.395 64.72 31.96C65.95 33.525 66.88 36.105 66.88 40C66.88 43.895 65.95 46.475 64.72 48.04C63.49 49.605 61.985 50.24 60.36 50.24H38.72V56.64H51.52V60.36C51.52 61.505 51.025 63.065 49.36 64.4C47.695 65.735 44.79 66.88 40 66.88C35.21 66.88 32.305 65.735 30.64 64.4C28.975 63.065 28.48 61.505 28.48 60.36V45.12C28.48 44.855 28.51 44.61 28.56 44.36C28.92 42.61 30.465 41.28 32.32 41.28H47.68C51.195 41.28 54.08 38.395 54.08 34.88V29.76ZM46.4 57.92C44.99 57.92 43.84 59.07 43.84 60.48C43.84 61.89 44.99 63.04 46.4 63.04C47.81 63.04 48.96 61.89 48.96 60.48C48.96 59.07 47.81 57.92 46.4 57.92Z" fill="black"/>
<path d="M79.5 40C79.5 61.8153 61.8153 79.5 40 79.5C18.1848 79.5 0.5 61.8153 0.5 40C0.5 18.1848 18.1848 0.5 40 0.5C61.8153 0.5 79.5 18.1848 79.5 40Z" stroke="black"/>
</svg>
