<svg width="80" height="80" viewBox="0 0 80 80" fill="none" xmlns="http://www.w3.org/2000/svg">
<path d="M52.23 13.1C51.232 13.0664 50.1874 13.2404 49.14 13.58C47.0453 14.2591 44.8502 15.5826 42.5975 17.415C41.7147 18.1331 40.8239 18.954 39.93 19.825C39.0559 18.9761 38.1834 18.1748 37.32 17.4725C35.0691 15.6415 32.88 14.3201 30.79 13.6425C28.7 12.9649 26.6205 12.9439 24.9125 13.93C23.2046 14.9161 22.1832 16.7262 21.725 18.875C21.2668 21.0238 21.3148 23.5827 21.775 26.4475C21.9349 27.4426 22.1654 28.4865 22.425 29.55C21.4491 29.8458 20.5014 30.1567 19.6225 30.5C16.9702 31.5359 14.7756 32.7752 13.1775 34.25C11.5794 35.7248 10.5475 37.5146 10.5475 39.48C10.5475 41.4454 11.5794 43.2327 13.1775 44.7075C14.7756 46.1823 16.9702 47.4241 19.6225 48.46C20.5623 48.827 21.5797 49.1575 22.63 49.47C22.2522 50.8816 21.9461 52.2515 21.7375 53.55C21.2769 56.4171 21.2283 58.9763 21.6875 61.13C22.1467 63.2837 23.1686 65.104 24.885 66.095C26.6014 67.086 28.6903 67.0616 30.785 66.3825C32.8798 65.7034 35.0723 64.3824 37.325 62.55C38.1997 61.8385 39.0845 61.0268 39.97 60.165C40.8597 61.0315 41.7489 61.8478 42.6275 62.5625C44.8784 64.3935 47.07 65.7149 49.16 66.3925C51.25 67.0701 53.3271 67.0911 55.035 66.105C56.743 65.1189 57.7643 63.3088 58.2225 61.16C58.6807 59.0112 58.6302 56.4523 58.17 53.5875C57.9608 52.2855 57.6546 50.9136 57.275 49.4975C58.36 49.1774 59.4096 48.838 60.3775 48.46C63.0298 47.4241 65.2244 46.1823 66.8225 44.7075C68.4206 43.2327 69.4525 41.4454 69.4525 39.48C69.4525 37.5146 68.4206 35.7248 66.8225 34.25C65.2244 32.7752 63.0298 31.5359 60.3775 30.5C59.4861 30.1518 58.5238 29.8368 57.5325 29.5375C57.7943 28.4675 58.0267 27.4161 58.1875 26.415C58.6481 23.5479 58.6968 20.9862 58.2375 18.8325C57.7783 16.6788 56.7539 14.861 55.0375 13.87C54.1793 13.3745 53.228 13.1336 52.23 13.1ZM52.1125 15.705C52.7388 15.7221 53.273 15.8712 53.73 16.135C54.644 16.6627 55.3196 17.6897 55.68 19.38C56.0404 21.0703 56.028 23.354 55.6025 26.0025C55.4568 26.9093 55.2453 27.8703 55.005 28.855C52.3875 28.2251 49.5193 27.7573 46.4625 27.4825C44.9269 25.3548 43.3484 23.4194 41.7575 21.7C42.5986 20.8789 43.4343 20.111 44.25 19.4475C46.3309 17.7548 48.301 16.603 49.945 16.07C50.767 15.8035 51.4863 15.6879 52.1125 15.705ZM27.8225 15.7125C28.4524 15.6949 29.1731 15.8102 29.9975 16.0775C31.6463 16.612 33.6198 17.7633 35.7025 19.4575C36.5016 20.1075 37.319 20.8587 38.1425 21.66C36.5401 23.393 34.9506 25.3487 33.405 27.495C30.3591 27.7749 27.5012 28.2471 24.895 28.88C24.6563 27.9 24.4476 26.9428 24.3025 26.04C23.8767 23.3892 23.8661 21.1027 24.2275 19.4075C24.589 17.7123 25.2701 16.6801 26.1925 16.1475C26.6537 15.8812 27.1926 15.7301 27.8225 15.7125ZM39.97 23.5425C41.0126 24.6771 42.0558 25.9191 43.09 27.255C42.0737 27.2126 41.0449 27.1875 40 27.1875C38.9344 27.1875 37.886 27.2134 36.85 27.2575C37.8846 25.9204 38.9271 24.6781 39.97 23.5425ZM40 29.7725C41.7407 29.7725 43.4373 29.844 45.0875 29.965C46.223 31.5959 47.3327 33.3262 48.39 35.1575C49.3191 36.7667 50.1598 38.3733 50.925 39.96C50.1517 41.5677 49.2969 43.1961 48.355 44.8275C47.5259 46.2635 46.6601 47.6275 45.78 48.9425C43.9159 49.0983 41.9844 49.185 40 49.185C37.9679 49.185 35.9929 49.0932 34.0875 48.93C33.2221 47.6339 32.3709 46.2881 31.555 44.875C30.6153 43.2474 29.7646 41.6244 28.9925 40.02C29.7678 38.4065 30.6224 36.7721 31.5675 35.135C32.6193 33.3133 33.7257 31.593 34.855 29.97C36.523 29.8463 38.2393 29.7725 40 29.7725ZM48.385 30.285C50.4941 30.5482 52.4744 30.914 54.3175 31.3525C53.7704 33.146 53.0965 35.0193 52.28 36.9525C51.7499 35.9305 51.2008 34.9051 50.6075 33.8775C49.8889 32.6329 49.1418 31.4444 48.385 30.285ZM31.48 30.305C30.7388 31.4433 30.0094 32.6075 29.305 33.8275C28.7041 34.8683 28.1437 35.9075 27.6075 36.9425C26.798 35.0209 26.1282 33.1582 25.585 31.375C27.4151 30.9355 29.3847 30.5713 31.48 30.305ZM56.85 32.0325C57.7574 32.307 58.6337 32.5935 59.4375 32.9075C61.8825 33.8625 63.8165 34.9933 65.07 36.15C66.3235 37.3067 66.8675 38.4099 66.8675 39.48C66.8675 40.5501 66.3235 41.6533 65.07 42.81C63.8165 43.9667 61.8825 45.0975 59.4375 46.0525C58.5443 46.4014 57.5628 46.7178 56.5425 47.0175C55.8147 44.7663 54.8857 42.4176 53.78 40.02C55.0513 37.2673 56.0782 34.5834 56.85 32.0325ZM23.1075 32.045C23.8705 34.5704 24.8843 37.2278 26.1375 39.9525C25.0246 42.3641 24.091 44.7261 23.36 46.99C22.3756 46.6981 21.4275 46.3903 20.5625 46.0525C18.1175 45.0975 16.1835 43.9667 14.93 42.81C13.6765 41.6533 13.1325 40.5501 13.1325 39.48C13.1325 38.4099 13.6765 37.3067 14.93 36.15C16.1835 34.9933 18.1175 33.8625 20.5625 32.9075C21.354 32.5984 22.2156 32.316 23.1075 32.045ZM40 33.6C36.4806 33.6 33.6 36.4805 33.6 40C33.6 43.5195 36.4806 46.4 40 46.4C43.5195 46.4 46.4 43.5195 46.4 40C46.4 36.4805 43.5195 33.6 40 33.6ZM40 36.16C42.136 36.16 43.84 37.8641 43.84 40C43.84 42.1359 42.136 43.84 40 43.84C37.8641 43.84 36.16 42.1359 36.16 40C36.16 37.8641 37.8641 36.16 40 36.16ZM52.3125 43.025C52.9838 44.6138 53.5673 46.1684 54.0575 47.6675C52.5182 48.0244 50.8791 48.3252 49.155 48.5625C49.6513 47.7706 50.1414 46.9639 50.62 46.135C51.2199 45.0959 51.7771 44.0582 52.3125 43.025ZM27.6375 43.0275C28.1758 44.0671 28.7364 45.1094 29.34 46.155C29.8126 46.9735 30.2951 47.7726 30.785 48.555C29.066 48.3166 27.432 48.0149 25.8975 47.6575C26.3855 46.163 26.9693 44.6116 27.6375 43.0275ZM25.16 50.1425C27.4766 50.6913 29.9875 51.1128 32.65 51.3875C34.4277 53.9587 36.2786 56.2679 38.1425 58.2875C37.3092 59.1 36.4833 59.8625 35.675 60.52C33.5941 62.2127 31.6216 63.362 29.9775 63.895C28.3335 64.428 27.1065 64.3577 26.1925 63.83C25.2785 63.3023 24.6054 62.2753 24.245 60.585C23.8846 58.8947 23.8946 56.6135 24.32 53.965C24.513 52.7635 24.8015 51.477 25.16 50.1425ZM54.7975 50.1525C55.1588 51.4944 55.4484 52.787 55.6425 53.995C56.0684 56.6458 56.079 58.9298 55.7175 60.625C55.3561 62.3202 54.6774 63.3549 53.755 63.8875C52.8326 64.4201 51.5963 64.492 49.9475 63.9575C48.2987 63.423 46.3252 62.2692 44.2425 60.575C43.4284 59.9128 42.5968 59.1466 41.7575 58.3275C43.6335 56.3003 45.4982 53.9786 47.2875 51.3925C49.9568 51.1197 52.4746 50.7006 54.7975 50.1525ZM35.99 51.65C37.3043 51.7216 38.6358 51.77 40 51.77C41.3191 51.77 42.6075 51.7245 43.88 51.6575C42.5792 53.4126 41.2532 55.0082 39.9325 56.445C38.6127 55.0051 37.2892 53.4067 35.99 51.65Z" fill="black"/>
<path d="M79.5 40C79.5 61.8153 61.8153 79.5 40 79.5C18.1848 79.5 0.5 61.8153 0.5 40C0.5 18.1848 18.1848 0.5 40 0.5C61.8153 0.5 79.5 18.1848 79.5 40Z" stroke="black"/>
</svg>
