<svg width="80" height="80" viewBox="0 0 80 80" fill="none" xmlns="http://www.w3.org/2000/svg">
<path d="M39 15C31.832 15 26 23.2923 26 33.4863C26 38.581 27.485 43.1545 29.8418 46.4922C29.2787 47.2258 29 48.1147 29 49C29 49.9722 29.3187 50.9579 30.002 51.7266C30.6852 52.4952 31.75 53 33 53C34.25 53 35.3148 52.4952 35.998 51.7266C36.6813 50.9579 37 49.9722 37 49C37 48.0278 36.6813 47.0421 35.998 46.2734C35.3148 45.5048 34.25 45 33 45C32.4179 45 31.8823 45.1179 31.4004 45.3125C29.3177 42.3178 28 38.144 28 33.4863C28 24.3953 32.935 17 39 17C44.419 17 48.9232 22.9094 49.8242 30.6504C50.5312 30.9194 51.2327 31.2226 51.9277 31.5566C51.2467 22.2666 45.71 15 39 15ZM37 28C35.75 28 34.6852 28.5048 34.002 29.2734C33.3187 30.0421 33 31.0278 33 32C33 32.9722 33.3187 33.9579 34.002 34.7266C34.6852 35.4952 35.75 36 37 36C38.25 36 39.3148 35.4952 39.998 34.7266C40.4251 34.2461 40.6942 33.6777 40.8477 33.084C44.4252 32.9301 48.4459 33.9871 52.1426 36.2031C60.0366 40.9351 64.0129 49.1867 61.0059 54.5957C59.9319 56.5267 58.0569 57.8976 55.5859 58.5586C52.1239 59.4866 47.8715 58.9161 43.8125 57.0801C43.2265 57.5511 42.6067 57.9967 41.9687 58.4277C45.2937 60.1067 48.8125 60.9961 52.0625 60.9961C53.4735 60.9961 54.8335 60.8302 56.1035 60.4902C59.1105 59.6852 61.4109 57.9824 62.7539 55.5664C66.2779 49.2244 61.9789 39.7693 53.1699 34.4883C49.1939 32.1032 44.8256 30.9365 40.8867 31.0645C40.7442 30.4164 40.4608 29.794 39.998 29.2734C39.3148 28.5048 38.25 28 37 28ZM37 30C37.75 30 38.1852 30.2452 38.502 30.6016C38.8187 30.9579 39 31.4722 39 32C39 32.5278 38.8187 33.0421 38.502 33.3984C38.1852 33.7548 37.75 34 37 34C36.25 34 35.8148 33.7548 35.498 33.3984C35.1813 33.0421 35 32.5278 35 32C35 31.4722 35.1813 30.9579 35.498 30.6016C35.8148 30.2452 36.25 30 37 30ZM24.1621 36.332C17.1981 41.772 14.102 49.9064 17.248 55.5664C18.591 57.9824 20.8914 59.6833 23.8984 60.4883C25.1694 60.8283 26.5285 60.9961 27.9395 60.9961C31.7395 60.9961 35.911 59.7877 39.707 57.5117C44.2628 54.7805 47.5437 50.9331 49.2129 46.9785C50.3678 46.9232 51.3552 46.4498 51.998 45.7266C52.6813 44.9579 53 43.9722 53 43C53 42.0278 52.6813 41.0421 51.998 40.2734C51.3148 39.5048 50.25 39 49 39C47.75 39 46.6852 39.5048 46.002 40.2734C45.3187 41.0421 45 42.0278 45 43C45 43.9722 45.3187 44.9579 46.002 45.7266C46.334 46.1001 46.7602 46.4076 47.25 46.6289C45.6815 50.0377 42.7152 53.3766 38.6777 55.7969C33.9277 58.6459 28.5961 59.6786 24.4141 58.5586C21.9421 57.8966 20.0691 56.5267 18.9961 54.5957C16.4541 50.0227 18.915 43.4278 24.502 38.6348C24.357 37.8838 24.2441 37.114 24.1621 36.332ZM49 41C49.75 41 50.1852 41.2452 50.502 41.6016C50.8187 41.9579 51 42.4722 51 43C51 43.5278 50.8187 44.0421 50.502 44.3984C50.1852 44.7548 49.75 45 49 45C48.25 45 47.8148 44.7548 47.498 44.3984C47.1813 44.0421 47 43.5278 47 43C47 42.4722 47.1813 41.9579 47.498 41.6016C47.8148 41.2452 48.25 41 49 41ZM33 47C33.75 47 34.1852 47.2452 34.502 47.6016C34.8187 47.9579 35 48.4722 35 49C35 49.5278 34.8187 50.0421 34.502 50.3984C34.1852 50.7548 33.75 51 33 51C32.25 51 31.8148 50.7548 31.498 50.3984C31.1813 50.0421 31 49.5278 31 49C31 48.4722 31.1813 47.9579 31.498 47.6016C31.8148 47.2452 32.25 47 33 47Z" fill="black"/>
<path d="M79.5 40C79.5 61.8153 61.8153 79.5 40 79.5C18.1848 79.5 0.5 61.8153 0.5 40C0.5 18.1848 18.1848 0.5 40 0.5C61.8153 0.5 79.5 18.1848 79.5 40Z" stroke="black"/>
</svg>
