<svg width="248" height="238" viewBox="0 0 248 238" fill="none" xmlns="http://www.w3.org/2000/svg">
<path d="M227.39 83.8451C248.018 125.1 255.596 164.274 238.757 190.768C221.707 217.452 180.24 231.645 129.721 236.376C79.2031 241.107 19.6336 236.376 4.26767 210.45C-11.0983 184.713 17.7392 137.78 47.6292 91.7934C77.3087 45.807 108.041 0.766754 140.457 0.0097759C172.662 -0.747203 206.551 42.5898 227.39 83.8451Z" fill="#FF535C"/>
<path d="M108.89 70.3703C108.757 77.1605 105.966 83.6276 101.117 88.3826C96.2673 93.1375 89.7467 95.801 82.9552 95.801C76.1637 95.801 69.643 93.1375 64.7938 88.3826C59.9445 83.6276 57.1535 77.1605 57.0202 70.3703C57.0202 56.0403 68.6302 43.1903 82.9502 43.1903C97.2702 43.1903 108.89 56.0003 108.89 70.3703Z" fill="#454545"/>
<path d="M107.61 71.1703C107.565 73.0488 107.313 74.9167 106.86 76.7403H105.7C98.9161 76.7502 92.1969 75.4185 85.9294 72.8219C79.6619 70.2253 73.9697 66.415 69.1802 61.6103C66.6211 59.0477 64.3354 56.2259 62.3602 53.1903C63.083 52.3775 63.858 51.6126 64.6802 50.9003C66.0638 52.7121 67.5672 54.4293 69.1802 56.0403C73.9697 60.845 79.6619 64.6553 85.9294 67.2519C92.1969 69.8485 98.9161 71.1802 105.7 71.1703H107.61Z" fill="#454545"/>
<path d="M82.9502 97.6703C78.0274 97.6654 73.1977 96.3291 68.9726 93.8028C64.7475 91.2766 61.2844 87.6545 58.9502 83.3203C58.8655 83.1627 58.8126 82.99 58.7947 82.812C58.7767 82.634 58.794 82.4542 58.8455 82.2829C58.9496 81.9369 59.1869 81.6464 59.5052 81.4753C59.8234 81.3043 60.1966 81.2666 60.5426 81.3707C60.8886 81.4748 61.1791 81.7121 61.3502 82.0303C63.9483 86.8437 68.0778 90.6529 73.0848 92.8549C78.0918 95.057 83.6903 95.526 88.9939 94.1877C94.2975 92.8495 99.0031 89.7805 102.366 85.4665C105.729 81.1526 107.557 75.8402 107.56 70.3703C107.56 56.3703 96.3002 44.5503 82.9802 44.5503C69.6602 44.5503 58.4102 56.3703 58.4102 70.3703C58.4095 72.5207 58.6885 74.662 59.2402 76.7403C59.2861 76.913 59.2976 77.0931 59.274 77.2702C59.2504 77.4473 59.1921 77.6181 59.1025 77.7727C59.0129 77.9273 58.8937 78.0627 58.7517 78.1713C58.6098 78.2798 58.4479 78.3594 58.2752 78.4053C58.1025 78.4513 57.9224 78.4628 57.7453 78.4392C57.5682 78.4156 57.3974 78.3573 57.2428 78.2677C57.0882 78.1781 56.9528 78.0589 56.8442 77.9169C56.7357 77.775 56.6561 77.613 56.6102 77.4403C55.9896 75.135 55.6769 72.7577 55.6802 70.3703C55.6802 54.8903 68.1802 41.8203 82.9802 41.8203C97.7802 41.8203 110.29 54.8903 110.29 70.3703C110.28 77.6144 107.394 84.5582 102.268 89.6768C97.1422 94.7954 90.1943 97.6703 82.9502 97.6703Z" fill="#181828"/>
<path d="M141.83 88.4203C141.83 95.3 144.563 101.898 149.428 106.763C154.292 111.627 160.89 114.36 167.77 114.36C174.65 114.36 181.248 111.627 186.112 106.763C190.977 101.898 193.71 95.3 193.71 88.4203C193.71 74.0903 182.1 61.2403 167.77 61.2403C153.44 61.2403 141.83 74.0903 141.83 88.4203Z" fill="#454545"/>
<path d="M143.11 89.2203C143.159 91.0992 143.414 92.9671 143.87 94.7903H145.03C153.643 94.7846 162.117 92.6274 169.684 88.5148C177.251 84.4021 183.671 78.4642 188.36 71.2403C187.637 70.4472 186.865 69.6991 186.05 69.0003C184.66 70.8103 181.14 69.4803 179.53 71.0903C170.19 80.4403 159.29 89.2703 145.03 89.2703L143.11 89.2203Z" fill="#454545"/>
<path d="M167.77 115.72C160.533 115.71 153.595 112.83 148.478 107.713C143.36 102.595 140.481 95.6575 140.47 88.4203C140.47 72.9403 152.97 59.8703 167.77 59.8703C182.57 59.8703 195.07 72.9403 195.07 88.4203C195.071 90.8102 194.762 93.1901 194.15 95.5003C194.038 95.829 193.804 96.1026 193.498 96.2658C193.191 96.429 192.834 96.4696 192.498 96.3794C192.163 96.2892 191.874 96.0749 191.691 95.7799C191.507 95.4848 191.443 95.1311 191.51 94.7903C192.07 92.7134 192.352 90.5714 192.35 88.4203C192.35 74.4203 181.09 62.6003 167.77 62.6003C154.45 62.6003 143.2 74.4203 143.2 88.4203C143.204 93.8902 145.031 99.2026 148.394 103.517C151.757 107.83 156.463 110.9 161.766 112.238C167.07 113.576 172.668 113.107 177.675 110.905C182.682 108.703 186.812 104.894 189.41 100.08C189.581 99.7621 189.872 99.5248 190.218 99.4207C190.564 99.3166 190.937 99.3543 191.255 99.5253C191.573 99.6964 191.811 99.9869 191.915 100.333C192.019 100.679 191.981 101.052 191.81 101.37C189.472 105.71 186.002 109.335 181.77 111.862C177.537 114.388 172.699 115.722 167.77 115.72Z" fill="#181828"/>
<path d="M66.8302 116.57L73.4902 116.7C77.6491 116.795 81.6021 118.53 84.4869 121.527C87.3718 124.524 88.9546 128.541 88.8902 132.7C88.8602 134.762 88.4239 136.798 87.6062 138.691C86.7885 140.584 85.6055 142.297 84.1248 143.732C82.6442 145.167 80.8951 146.296 78.9776 147.054C77.0601 147.812 75.0118 148.185 72.9502 148.15L66.2902 148.02C62.1277 147.931 58.1696 146.198 55.2805 143.2C52.3913 140.203 50.8058 136.183 50.8702 132.02C50.9053 129.961 51.3458 127.929 52.1664 126.04C52.9871 124.151 54.1718 122.442 55.653 121.011C57.1341 119.58 58.8827 118.455 60.7988 117.7C62.7149 116.945 64.7609 116.575 66.8202 116.61L66.8302 116.57Z" fill="#FDC6A2"/>
<path d="M50.3502 133.12C50.1707 133.119 49.9933 133.082 49.8281 133.012C49.663 132.942 49.5133 132.84 49.3878 132.711C49.2624 132.583 49.1635 132.431 49.0969 132.265C49.0304 132.098 48.9975 131.92 49.0001 131.74C49.044 128.199 50.206 124.762 52.3202 121.92C52.4265 121.777 52.5602 121.655 52.7135 121.563C52.8668 121.471 53.0368 121.41 53.2136 121.383C53.3905 121.357 53.5709 121.365 53.7445 121.409C53.918 121.452 54.0814 121.529 54.2252 121.635C54.369 121.742 54.4904 121.875 54.5825 122.029C54.6747 122.182 54.7357 122.352 54.7622 122.529C54.7887 122.706 54.78 122.886 54.7368 123.06C54.6935 123.233 54.6165 123.397 54.5102 123.54C52.736 125.924 51.7628 128.809 51.7302 131.78C51.7276 131.959 51.6898 132.135 51.619 132.299C51.5482 132.463 51.4459 132.612 51.3177 132.736C51.1896 132.861 51.0382 132.959 50.8722 133.024C50.7061 133.09 50.5288 133.123 50.3502 133.12Z" fill="#181828"/>
<path d="M72.7002 149.31H72.4002L65.7202 149.18C62.3117 149.118 58.9998 148.037 56.2108 146.077C53.4218 144.116 51.2831 141.366 50.0702 138.18C49.9432 137.842 49.9549 137.467 50.1029 137.138C50.2508 136.808 50.523 136.55 50.8602 136.42C51.0276 136.356 51.206 136.326 51.3852 136.331C51.5645 136.335 51.7409 136.376 51.9045 136.449C52.0681 136.523 52.2155 136.628 52.3383 136.758C52.4612 136.889 52.557 137.043 52.6202 137.21C53.6332 139.896 55.4292 142.215 57.7756 143.868C60.1219 145.521 62.9105 146.431 65.7802 146.48L72.4202 146.62C76.1888 146.624 79.8082 145.148 82.4996 142.51C85.1911 139.872 86.7395 136.283 86.8115 132.515C86.8836 128.747 85.4737 125.102 82.8851 122.363C80.2965 119.624 76.7361 118.011 72.9702 117.87L66.3202 117.73C63.7021 117.67 61.1179 118.331 58.8502 119.64C58.6959 119.73 58.5254 119.789 58.3484 119.813C58.1714 119.837 57.9914 119.826 57.8187 119.781C57.646 119.735 57.4839 119.656 57.3418 119.548C57.1996 119.44 57.0801 119.305 56.9902 119.15C56.808 118.837 56.7573 118.465 56.8491 118.114C56.9409 117.764 57.1678 117.464 57.4802 117.28C60.1824 115.721 63.2614 114.936 66.3802 115.01L73.0302 115.14C77.5001 115.283 81.7366 117.169 84.8327 120.396C87.9288 123.624 89.6383 127.935 89.5951 132.407C89.552 136.879 87.7597 141.156 84.6019 144.323C81.4442 147.49 77.172 149.294 72.7002 149.35V149.31Z" fill="#181828"/>
<path d="M69.1302 129.44L72.5902 129.5C74.7554 129.55 76.8128 130.456 78.312 132.019C79.8113 133.582 80.6304 135.675 80.5902 137.84C80.5429 140.003 79.641 142.059 78.0818 143.558C76.5225 145.057 74.433 145.878 72.2702 145.84L68.8102 145.77C66.6467 145.72 64.5909 144.816 63.0919 143.256C61.5929 141.695 60.7726 139.604 60.8102 137.44C60.8548 135.277 61.7559 133.22 63.3157 131.72C64.8756 130.22 66.9666 129.4 69.1302 129.44Z" fill="#E89176"/>
<path d="M57.4702 126.88C57.9978 125.49 59.0396 124.355 60.3802 123.71C61.5402 123.26 61.0702 121.37 59.8702 121.83C58.0234 122.608 56.5526 124.075 55.7702 125.92C55.2902 127.06 56.9602 128.05 57.4502 126.92L57.4702 126.88Z" fill="white"/>
<path d="M58.2793 130.814C58.4077 129.967 57.9622 129.197 57.2842 129.094C56.6062 128.991 55.9525 129.595 55.8241 130.442C55.6957 131.29 56.1412 132.06 56.8192 132.163C57.4972 132.266 58.1509 131.662 58.2793 130.814Z" fill="white"/>
<path d="M176.95 116.57L183.61 116.7C187.773 116.79 191.731 118.522 194.62 121.52C197.509 124.518 199.094 128.537 199.03 132.7C198.995 134.76 198.555 136.792 197.734 138.681C196.913 140.57 195.728 142.278 194.247 143.709C192.766 145.14 191.018 146.266 189.101 147.021C187.185 147.776 185.139 148.146 183.08 148.11L176.43 147.98C172.261 147.907 168.29 146.183 165.389 143.188C162.487 140.193 160.891 136.17 160.95 132C160.985 129.937 161.427 127.901 162.251 126.008C163.075 124.116 164.264 122.405 165.751 120.973C167.237 119.542 168.992 118.418 170.913 117.665C172.835 116.913 174.887 116.548 176.95 116.59V116.57Z" fill="#FDC6A2"/>
<path d="M183.31 149.33H183.02L176.33 149.19C171.802 149.085 167.498 147.194 164.359 143.929C161.219 140.664 159.498 136.29 159.57 131.76C159.649 127.299 161.473 123.047 164.651 119.915C167.829 116.784 172.108 115.023 176.57 115.01H176.95L183.6 115.14C188.133 115.177 192.465 117.014 195.644 120.245C198.822 123.476 200.587 127.838 200.55 132.37C200.513 136.903 198.677 141.235 195.446 144.414C192.214 147.593 187.853 149.357 183.32 149.32L183.31 149.33ZM176.62 117.74C172.865 117.74 169.26 119.214 166.582 121.846C163.903 124.477 162.366 128.056 162.3 131.81C162.238 135.619 163.685 139.297 166.324 142.044C168.964 144.79 172.582 146.381 176.39 146.47L183.04 146.6C186.849 146.667 190.527 145.217 193.267 142.571C196.007 139.925 197.584 136.299 197.65 132.49C197.716 128.682 196.267 125.003 193.621 122.263C190.975 119.523 187.349 117.947 183.54 117.88L176.89 117.74H176.62Z" fill="#181828"/>
<path d="M179.74 129.44L183.21 129.5C185.373 129.553 187.427 130.458 188.925 132.018C190.424 133.578 191.245 135.667 191.21 137.83C191.16 139.994 190.256 142.05 188.695 143.549C187.135 145.048 185.044 145.868 182.88 145.83L179.43 145.76C177.267 145.71 175.211 144.806 173.712 143.246C172.213 141.685 171.393 139.594 171.43 137.43C171.48 135.271 172.382 133.22 173.938 131.723C175.495 130.226 177.581 129.405 179.74 129.44Z" fill="#E89176"/>
<path d="M60.4202 134.54C60.2227 134.55 60.0268 134.501 59.8572 134.399C59.6877 134.297 59.5521 134.148 59.4675 133.969C59.383 133.79 59.3533 133.591 59.3822 133.395C59.4112 133.199 59.4975 133.017 59.6302 132.87C61.606 130.449 64.358 128.785 67.4202 128.16C67.6854 128.106 67.9613 128.159 68.1873 128.308C68.4133 128.457 68.5708 128.69 68.6252 128.955C68.6795 129.221 68.6263 129.496 68.4772 129.722C68.3282 129.948 68.0954 130.106 67.8302 130.16C65.2293 130.686 62.8924 132.1 61.2202 134.16C61.125 134.281 61.0033 134.378 60.8645 134.444C60.7258 134.51 60.5737 134.543 60.4202 134.54Z" fill="#1B1B2B"/>
<path d="M192.02 134.54C191.867 134.543 191.714 134.51 191.576 134.444C191.437 134.378 191.315 134.281 191.22 134.16C189.546 132.102 187.21 130.688 184.61 130.16C184.345 130.106 184.112 129.948 183.963 129.722C183.814 129.496 183.761 129.221 183.815 128.955C183.869 128.69 184.027 128.457 184.253 128.308C184.479 128.159 184.755 128.106 185.02 128.16C188.082 128.785 190.834 130.449 192.81 132.87C192.898 132.973 192.964 133.093 193.004 133.222C193.044 133.352 193.058 133.488 193.044 133.622C193.03 133.757 192.988 133.887 192.922 134.006C192.857 134.124 192.767 134.228 192.66 134.31C192.48 134.459 192.254 134.541 192.02 134.54Z" fill="#1B1B2B"/>
<path d="M165.12 50.6203C165.81 51.2103 166.41 51.8303 167.03 52.4503C172.462 57.866 176.77 64.3018 179.706 71.3877C182.642 78.4737 184.149 86.0701 184.14 93.7403V146C184.309 161.489 178.317 176.41 167.484 187.481C162.12 192.963 155.729 197.335 148.676 200.347C141.622 203.359 134.044 204.952 126.375 205.035C110.887 205.204 95.9654 199.212 84.8941 188.379C73.8229 177.546 67.5086 162.759 67.3402 147.27C67.3402 146.85 67.3402 146.43 67.3402 146V93.7403C67.3278 85.6243 69.0115 77.5952 72.2834 70.1679C75.5553 62.7407 80.3433 56.0791 86.3402 50.6103C107.57 31.2403 143.83 31.3703 165.12 50.6203Z" fill="#FDC6A2"/>
<path d="M167.35 52.7203C166.73 52.1003 166.09 51.4903 165.44 50.9003C163.504 52.0767 161.501 53.1385 159.44 54.0803C159.72 54.3603 159.97 54.6603 160.23 54.9603L162.34 57.4303C165.467 61.2888 168.12 65.509 170.24 70.0003H100.24C100.243 71.6668 100.907 73.2641 102.086 74.4416C103.265 75.619 104.864 76.2803 106.53 76.2803H172.7C174.376 81.5467 175.213 87.0439 175.18 92.5703V146.3C175.181 160.988 169.648 175.137 159.682 185.927C149.717 196.717 136.052 203.356 121.41 204.52C122.93 204.64 124.48 204.7 126.03 204.7C133.7 204.702 141.294 203.192 148.38 200.258C155.466 197.323 161.905 193.021 167.328 187.598C172.751 182.175 177.053 175.737 179.987 168.651C182.922 161.565 184.431 153.97 184.43 146.3V94.0003C184.442 86.3339 182.939 78.7406 180.008 71.6566C177.077 64.5726 172.775 58.1373 167.35 52.7203Z" fill="#E89176"/>
<path d="M138.191 219.947C138.191 223.403 138.909 227.299 137.715 229.997C135.348 235.38 129.553 238.12 124.505 237.996C120.861 237.887 117.396 235.822 114.866 232.25C112.336 228.678 110.947 223.889 111.002 218.929L111.689 203.936V203L139 203.179" fill="#FDC6A2"/>
<path opacity="0.49" d="M139.95 204.4L138.25 218.53C135.162 219.208 131.942 218.95 129 217.79C123.789 215.447 118.327 213.706 112.72 212.6H112.59L112.73 204.42C121.733 206.025 130.948 206.025 139.95 204.42V204.4Z" fill="#E89176"/>
<path opacity="0.55" d="M102.69 199.05C103.088 199.05 103.41 198.728 103.41 198.33C103.41 197.933 103.088 197.61 102.69 197.61C102.293 197.61 101.97 197.933 101.97 198.33C101.97 198.728 102.293 199.05 102.69 199.05Z" fill="white"/>
<path opacity="0.55" d="M112.71 202.76C113.235 202.76 113.66 202.335 113.66 201.81C113.66 201.286 113.235 200.86 112.71 200.86C112.186 200.86 111.76 201.286 111.76 201.81C111.76 202.335 112.186 202.76 112.71 202.76Z" fill="white"/>
<path d="M130.95 203.58C129.46 203.69 127.95 203.75 126.42 203.75C94.1702 203.75 64.5602 178.02 68.0202 145.35V93.0603C68.0085 84.9459 69.6926 76.9186 72.9646 69.493C76.2365 62.0674 81.024 55.4076 87.0202 49.9403C88.8702 51.0603 88.4702 52.1103 90.5502 53.0703C80.7202 63.5103 73.1102 77.6103 73.1102 93.0703V145.36C73.1702 176.09 96.8502 202.57 130.95 203.58Z" fill="white"/>
<path d="M158.82 116.42C161.184 116.42 163.1 114.504 163.1 112.14C163.1 109.777 161.184 107.86 158.82 107.86C156.456 107.86 154.54 109.777 154.54 112.14C154.54 114.504 156.456 116.42 158.82 116.42Z" fill="#FDC6A2"/>
<path d="M72.3202 170.8C72.0626 170.799 71.8105 170.725 71.5929 170.587C71.3754 170.449 71.2011 170.253 71.0902 170.02C70.4719 168.739 69.9828 167.399 69.6302 166.02C69.5697 165.841 69.547 165.651 69.5635 165.462C69.5801 165.274 69.6356 165.091 69.7265 164.925C69.8173 164.759 69.9416 164.613 70.0914 164.498C70.2413 164.382 70.4135 164.299 70.5972 164.253C70.7809 164.207 70.972 164.2 71.1586 164.232C71.3452 164.264 71.5232 164.334 71.6813 164.438C71.8394 164.542 71.9743 164.678 72.0774 164.836C72.1804 164.995 72.2495 165.174 72.2802 165.36C72.5818 166.574 73.0074 167.754 73.5502 168.88C73.6282 169.042 73.6736 169.217 73.6836 169.396C73.6937 169.575 73.6682 169.754 73.6087 169.923C73.5493 170.093 73.4569 170.248 73.337 170.382C73.2172 170.515 73.0721 170.623 72.9102 170.7C72.7232 170.776 72.5218 170.811 72.3202 170.8Z" fill="#181828"/>
<path opacity="0.62" d="M106.62 137.48C110.768 137.48 114.13 133.227 114.13 127.98C114.13 122.734 110.768 118.48 106.62 118.48C102.473 118.48 99.1102 122.734 99.1102 127.98C99.1102 133.227 102.473 137.48 106.62 137.48Z" fill="#E89176"/>
<path d="M106.28 135.3C110.367 135.3 113.68 131.101 113.68 125.92C113.68 120.74 110.367 116.54 106.28 116.54C102.193 116.54 98.8802 120.74 98.8802 125.92C98.8802 131.101 102.193 135.3 106.28 135.3Z" fill="#181828"/>
<path d="M103.64 125.49C105.148 125.49 106.37 124.156 106.37 122.51C106.37 120.865 105.148 119.53 103.64 119.53C102.132 119.53 100.91 120.865 100.91 122.51C100.91 124.156 102.132 125.49 103.64 125.49Z" fill="white"/>
<path opacity="0.62" d="M145.64 137.48C149.788 137.48 153.15 133.227 153.15 127.98C153.15 122.734 149.788 118.48 145.64 118.48C141.492 118.48 138.13 122.734 138.13 127.98C138.13 133.227 141.492 137.48 145.64 137.48Z" fill="#E89176"/>
<path d="M145.31 135.3C149.397 135.3 152.71 131.101 152.71 125.92C152.71 120.74 149.397 116.54 145.31 116.54C141.223 116.54 137.91 120.74 137.91 125.92C137.91 131.101 141.223 135.3 145.31 135.3Z" fill="#181828"/>
<path d="M142.66 125.49C144.168 125.49 145.39 124.156 145.39 122.51C145.39 120.865 144.168 119.53 142.66 119.53C141.152 119.53 139.93 120.865 139.93 122.51C139.93 124.156 141.152 125.49 142.66 125.49Z" fill="white"/>
<path d="M125.7 205.86C115.317 205.837 105.117 203.119 96.0992 197.973C87.0809 192.826 79.5525 185.428 74.2502 176.5C74.1403 176.346 74.0636 176.17 74.0251 175.985C73.9866 175.799 73.9871 175.607 74.0264 175.422C74.0658 175.236 74.1433 175.061 74.2539 174.907C74.3645 174.753 74.5059 174.624 74.6691 174.527C74.8323 174.431 75.0138 174.369 75.202 174.346C75.3902 174.323 75.5812 174.34 75.7627 174.395C75.9442 174.45 76.1123 174.542 76.2565 174.665C76.4007 174.788 76.5177 174.94 76.6002 175.11C81.662 183.627 88.8474 190.684 97.4537 195.592C106.06 200.5 115.793 203.091 125.7 203.11H125.77C140.898 203.081 155.396 197.051 166.082 186.344C176.768 175.637 182.77 161.128 182.77 146V93.7403C182.75 78.6186 176.746 64.1194 166.07 53.4103L165.95 53.3003C165.37 52.7203 164.82 52.1703 164.21 51.6403C154.27 42.6403 140.21 37.5103 125.69 37.4903H125.6C110.85 37.4903 97.2402 42.4903 87.2702 51.6203C81.4129 56.9623 76.7343 63.4674 73.5334 70.7199C70.3324 77.9724 68.6795 85.8129 68.6802 93.7403V146C68.681 149.454 68.9888 152.901 69.6002 156.3C69.6356 156.644 69.5396 156.989 69.3314 157.265C69.1233 157.541 68.8185 157.729 68.478 157.789C68.1376 157.85 67.7868 157.78 67.496 157.593C67.2052 157.405 66.9959 157.115 66.9102 156.78C66.2707 153.223 65.9494 149.615 65.9502 146V93.7403C65.9502 85.4348 67.6805 77.2204 71.031 69.6207C74.3815 62.021 79.2786 55.2026 85.4102 49.6003C107.12 29.7603 144.02 29.7503 166 49.6003C166.66 50.1703 167.27 50.7803 167.86 51.3703L167.96 51.4803C179.148 62.7021 185.443 77.8941 185.47 93.7403V146C185.47 161.847 179.185 177.046 167.993 188.264C156.801 199.482 141.616 205.803 125.77 205.84L125.7 205.86Z" fill="#181828"/>
<path d="M125.381 238C121.6 237.994 117.958 236.239 115.18 233.083C113.551 231.256 112.25 229.032 111.358 226.552C110.466 224.073 110.004 221.393 110 218.682V204.955C110 204.487 110.151 204.038 110.42 203.707C110.689 203.377 111.054 203.191 111.435 203.191C111.815 203.191 112.18 203.377 112.449 203.707C112.718 204.038 112.869 204.487 112.869 204.955V218.682C112.868 220.904 113.242 223.102 113.969 225.137C114.695 227.172 115.758 228.998 117.089 230.501C118.359 231.937 119.861 233.027 121.498 233.698C123.134 234.369 124.868 234.606 126.584 234.393L127.449 234.263C130.44 233.648 133.156 231.743 135.11 228.891C137.064 226.038 138.129 222.424 138.115 218.695V204.929C138.098 204.684 138.122 204.437 138.187 204.204C138.251 203.971 138.355 203.757 138.49 203.575C138.625 203.394 138.79 203.249 138.973 203.15C139.156 203.051 139.355 203 139.555 203C139.755 203 139.953 203.051 140.136 203.15C140.319 203.249 140.484 203.394 140.619 203.575C140.755 203.757 140.858 203.971 140.923 204.204C140.987 204.437 141.012 204.684 140.995 204.929V218.682C141.004 223.254 139.69 227.682 137.287 231.171C134.884 234.661 131.55 236.985 127.882 237.728C127.533 237.792 127.196 237.844 126.827 237.883C126.347 237.954 125.864 237.993 125.381 238Z" fill="#181828"/>
<path d="M78.6402 104.86H78.6302C77.4593 104.86 76.5102 105.809 76.5102 106.98V125.67C76.5102 126.841 77.4593 127.79 78.6302 127.79H78.6402C79.811 127.79 80.7602 126.841 80.7602 125.67V106.98C80.7602 105.809 79.811 104.86 78.6402 104.86Z" fill="#FFE8DC"/>
<path d="M128.07 146.22C127.795 146.218 127.526 146.133 127.299 145.976C127.073 145.819 126.899 145.598 126.8 145.34C125.482 141.861 124.697 138.204 124.47 134.49V118.54C124.47 118.18 124.613 117.834 124.868 117.579C125.124 117.324 125.469 117.18 125.83 117.18C126.191 117.18 126.537 117.324 126.792 117.579C127.047 117.834 127.19 118.18 127.19 118.54V134.37C127.406 137.793 128.134 141.164 129.35 144.37C129.414 144.538 129.445 144.716 129.44 144.895C129.435 145.075 129.395 145.251 129.321 145.415C129.248 145.578 129.143 145.726 129.012 145.848C128.882 145.971 128.728 146.067 128.56 146.13C128.403 146.189 128.238 146.22 128.07 146.22Z" fill="#181828"/>
<path d="M151.02 33.7103H122.33C118.661 28.8797 113.925 24.9627 108.492 22.2653C103.059 19.5678 97.076 18.1629 91.0102 18.1603H55.3302C55.3302 46.6803 78.2102 71.0403 106.43 71.0403H186.73C186.73 51.1103 170.74 33.7103 151.02 33.7103Z" fill="#454545"/>
<path d="M170.62 39.5103C179.87 46.0503 185.92 58.0603 185.92 70.2503H104.75C96.9277 70.2552 89.2068 68.4794 82.1725 65.0575C75.1382 61.6357 68.9751 56.6575 64.1502 50.5003C73.2431 57.6516 84.4821 61.5271 96.0502 61.5003H161.7C172.15 61.5003 178.07 47.8703 171.15 40.0403L170.62 39.4703" fill="#161616"/>
<path d="M87.0902 22.4003V22.3903C87.0902 21.2195 86.141 20.2703 84.9702 20.2703H66.2802C65.1093 20.2703 64.1602 21.2195 64.1602 22.3903V22.4003C64.1602 23.5712 65.1093 24.5203 66.2802 24.5203H84.9702C86.141 24.5203 87.0902 23.5712 87.0902 22.4003Z" fill="#868686"/>
<path d="M66.038 42.1512C66.6348 41.8267 66.3528 40.1555 65.4082 38.4186C64.4635 36.6817 63.214 35.5367 62.6172 35.8613C62.0204 36.1858 62.3025 37.857 63.2471 39.5939C64.1917 41.3308 65.4413 42.4758 66.038 42.1512Z" fill="#868686"/>
<path d="M61.1102 33.8203C61.5851 33.8203 61.9702 33.4353 61.9702 32.9603C61.9702 32.4854 61.5851 32.1003 61.1102 32.1003C60.6352 32.1003 60.2502 32.4854 60.2502 32.9603C60.2502 33.4353 60.6352 33.8203 61.1102 33.8203Z" fill="#868686"/>
<path d="M64.0102 32.3303C64.2532 32.3303 64.4502 32.1333 64.4502 31.8903C64.4502 31.6473 64.2532 31.4503 64.0102 31.4503C63.7672 31.4503 63.5702 31.6473 63.5702 31.8903C63.5702 32.1333 63.7672 32.3303 64.0102 32.3303Z" fill="#868686"/>
<path d="M64.3502 35.4003C64.5932 35.4003 64.7902 35.2033 64.7902 34.9603C64.7902 34.7173 64.5932 34.5203 64.3502 34.5203C64.1072 34.5203 63.9102 34.7173 63.9102 34.9603C63.9102 35.2033 64.1072 35.4003 64.3502 35.4003Z" fill="#868686"/>
<path d="M66.2902 35.6103C66.5276 35.6103 66.7202 35.4178 66.7202 35.1803C66.7202 34.9429 66.5276 34.7503 66.2902 34.7503C66.0527 34.7503 65.8602 34.9429 65.8602 35.1803C65.8602 35.4178 66.0527 35.6103 66.2902 35.6103Z" fill="#868686"/>
<path d="M67.0502 37.9003C67.2877 37.9003 67.4802 37.7078 67.4802 37.4703C67.4802 37.2328 67.2877 37.0403 67.0502 37.0403C66.8127 37.0403 66.6202 37.2328 66.6202 37.4703C66.6202 37.7078 66.8127 37.9003 67.0502 37.9003Z" fill="#868686"/>
<path d="M65.6602 39.0003C65.8976 39.0003 66.0902 38.8078 66.0902 38.5703C66.0902 38.3329 65.8976 38.1403 65.6602 38.1403C65.4227 38.1403 65.2302 38.3329 65.2302 38.5703C65.2302 38.8078 65.4227 39.0003 65.6602 39.0003Z" fill="#868686"/>
<path d="M66.7702 43.7403C66.8884 43.6692 67.0199 43.6234 67.1567 43.6056C67.2934 43.5878 67.4324 43.5985 67.5648 43.637C67.6972 43.6755 67.8203 43.741 67.9262 43.8293C68.0321 43.9177 68.1186 44.027 68.1802 44.1503C68.4602 44.6603 68.2702 46.5303 67.7602 46.8103C67.6414 46.8811 67.5092 46.9264 67.372 46.9435C67.2348 46.9605 67.0956 46.949 66.9631 46.9095C66.8306 46.87 66.7077 46.8035 66.6022 46.7142C66.4967 46.6248 66.4109 46.5145 66.3502 46.3903C66.0802 45.8903 66.2602 44.0003 66.7702 43.7403Z" fill="#868686"/>
<path d="M69.0902 41.5403C69.6977 41.5403 70.1902 41.0478 70.1902 40.4403C70.1902 39.8328 69.6977 39.3403 69.0902 39.3403C68.4827 39.3403 67.9902 39.8328 67.9902 40.4403C67.9902 41.0478 68.4827 41.5403 69.0902 41.5403Z" fill="#868686"/>
<path d="M68.3602 43.2803C68.4866 43.2102 68.6258 43.166 68.7695 43.1502C68.9132 43.1344 69.0586 43.1473 69.1973 43.1883C69.336 43.2292 69.4651 43.2974 69.5772 43.3887C69.6893 43.48 69.7821 43.5928 69.8502 43.7203C70.1402 44.2503 69.9502 46.1603 69.4102 46.4503C68.8702 46.7403 68.2102 45.3003 67.9302 44.7603C67.8599 44.6352 67.8153 44.4974 67.7989 44.3548C67.7825 44.2123 67.7946 44.0679 67.8347 43.9301C67.8747 43.7923 67.9418 43.6639 68.032 43.5523C68.1223 43.4408 68.2338 43.3483 68.3602 43.2803Z" fill="#868686"/>
<path d="M107.64 25.3603C107.395 25.3594 107.152 25.3189 106.92 25.2403L100.3 22.9203C96.9029 21.7322 93.3292 21.127 89.7302 21.1303H60.8202C60.5221 21.1505 60.2231 21.1093 59.9417 21.0092C59.6603 20.909 59.4025 20.7521 59.1842 20.5481C58.966 20.3442 58.7919 20.0976 58.673 19.8236C58.554 19.5496 58.4926 19.254 58.4926 18.9553C58.4926 18.6566 58.554 18.3611 58.673 18.0871C58.7919 17.8131 58.966 17.5665 59.1842 17.3625C59.4025 17.1586 59.6603 17.0017 59.9417 16.9015C60.2231 16.8014 60.5221 16.7601 60.8202 16.7803H89.7302C93.8145 16.7637 97.872 17.44 101.73 18.7803L108.34 21.0903C108.82 21.2638 109.224 21.6001 109.481 22.0406C109.739 22.4812 109.834 22.9982 109.749 23.5014C109.665 24.0047 109.406 24.4623 109.019 24.7947C108.632 25.1271 108.14 25.3131 107.63 25.3203L107.64 25.3603Z" fill="#868686"/>
<path d="M67.3302 51.8303C67.0224 51.83 66.7182 51.7648 66.4374 51.639C66.1565 51.5133 65.9053 51.3297 65.7002 51.1003C57.7502 42.1003 55.8302 29.9403 55.7502 29.4303C55.6854 29.139 55.6811 28.8374 55.7376 28.5443C55.7941 28.2512 55.9102 27.9729 56.0787 27.7265C56.2472 27.4801 56.4646 27.2709 56.7172 27.112C56.9698 26.953 57.2524 26.8476 57.5475 26.8023C57.8425 26.757 58.1437 26.7728 58.4324 26.8487C58.721 26.9246 58.9911 27.0589 59.2257 27.2435C59.4604 27.428 59.6546 27.6587 59.7964 27.9213C59.9382 28.184 60.0246 28.4729 60.0502 28.7703C60.0502 28.8803 61.8702 40.1903 68.9602 48.2203C69.238 48.5336 69.4193 48.9205 69.4822 49.3345C69.5451 49.7484 69.4869 50.1717 69.3146 50.5533C69.1423 50.935 68.8632 51.2586 68.5111 51.4852C68.159 51.7117 67.7489 51.8316 67.3302 51.8303Z" fill="#868686"/>
<path d="M143.44 34.2803H137.27C136.928 34.251 136.61 34.0946 136.378 33.8418C136.146 33.589 136.017 33.2584 136.017 32.9153C136.017 32.5722 136.146 32.2416 136.378 31.9889C136.61 31.7361 136.928 31.5796 137.27 31.5503H143.44C143.629 31.5341 143.82 31.5574 143.999 31.6186C144.179 31.6799 144.344 31.7778 144.484 31.9061C144.623 32.0344 144.735 32.1904 144.811 32.3641C144.888 32.5379 144.927 32.7256 144.927 32.9153C144.927 33.1051 144.888 33.2928 144.811 33.4665C144.735 33.6403 144.623 33.7962 144.484 33.9246C144.344 34.0529 144.179 34.1508 143.999 34.212C143.82 34.2733 143.629 34.2965 143.44 34.2803Z" fill="#181828"/>
<path d="M186.73 71.6103H105.56C98.5432 71.5915 91.603 70.1497 85.1592 67.3721C78.7154 64.5945 72.9018 60.5388 68.0702 55.4503C58.1241 45.2664 52.5573 31.5953 52.5602 17.3603C52.5601 17.1792 52.5963 16.9998 52.6665 16.8329C52.7367 16.6659 52.8396 16.5146 52.9691 16.3879C53.0985 16.2612 53.252 16.1617 53.4205 16.0951C53.589 16.0286 53.7691 15.9963 53.9502 16.0003H89.9502C96.1619 15.9834 102.297 17.3737 107.894 20.0668C113.492 22.76 118.407 26.686 122.27 31.5503H131.27C131.612 31.5796 131.93 31.7361 132.162 31.9889C132.394 32.2416 132.523 32.5722 132.523 32.9153C132.523 33.2584 132.394 33.589 132.162 33.8418C131.93 34.0946 131.612 34.251 131.27 34.2803H121.58C121.373 34.2823 121.168 34.2353 120.982 34.1432C120.796 34.0512 120.634 33.9165 120.51 33.7503C116.914 29.0653 112.286 25.2728 106.986 22.6677C101.686 20.0627 95.856 18.7153 89.9502 18.7303H55.3002C55.651 31.7756 60.9072 44.2091 70.0202 53.5503C74.5996 58.3761 80.1103 62.2228 86.219 64.8578C92.3277 67.4928 98.9074 68.8612 105.56 68.8803H185.34C184.62 49.9903 169.02 34.2803 150.64 34.2803H149.2C149.011 34.2965 148.821 34.2733 148.641 34.212C148.461 34.1508 148.297 34.0529 148.157 33.9246C148.017 33.7962 147.905 33.6403 147.829 33.4665C147.753 33.2928 147.713 33.1051 147.713 32.9153C147.713 32.7256 147.753 32.5379 147.829 32.3641C147.905 32.1904 148.017 32.0344 148.157 31.9061C148.297 31.7778 148.461 31.6799 148.641 31.6186C148.821 31.5574 149.011 31.5341 149.2 31.5503H150.64C170.94 31.5503 188.09 49.2703 188.09 70.2503C188.09 70.4289 188.055 70.6058 187.987 70.7708C187.918 70.9358 187.818 71.0857 187.692 71.212C187.566 71.3383 187.416 71.4385 187.251 71.5068C187.086 71.5752 186.909 71.6103 186.73 71.6103Z" fill="#181828"/>
<path opacity="0.39" d="M158.81 168.62C158.81 187.91 144.2 203.55 126.13 203.62H124.8C107.12 203.55 92.7002 188.5 92.1502 169.62L91.8402 154.79C93.2602 149.22 97.2801 148.69 102.31 147.63H148.31C153.31 148.68 157.36 147.72 158.79 153.33L158.81 168.62Z" fill="#C08976"/>
<path d="M101.95 155.28H149.77V165.85C149.77 172.192 147.251 178.273 142.767 182.757C138.283 187.241 132.201 189.76 125.86 189.76C119.519 189.76 113.437 187.241 108.953 182.757C104.469 178.273 101.95 172.192 101.95 165.85V155.28Z" fill="#AF143B"/>
<path d="M130.78 189.21C127.708 189.86 124.538 189.898 121.451 189.322C118.364 188.747 115.42 187.569 112.789 185.855C110.157 184.142 107.889 181.927 106.113 179.337C104.337 176.747 103.089 173.833 102.44 170.76C102.093 169.143 101.918 167.494 101.92 165.84V155.28H111.85V165.84C111.852 171.315 113.733 176.622 117.178 180.876C120.624 185.13 125.426 188.072 130.78 189.21Z" fill="#91052D"/>
<path d="M149.72 155.28H110.06V169.79H149.72V155.28Z" fill="white"/>
<path d="M149.72 155.28H110.06V161.33H149.72V155.28Z" fill="#FFDEDE"/>
<path d="M147.53 171.37V174.15C147.53 182.56 140.72 188.15 132.31 188.15C129.66 188.15 127.16 189.99 124.99 188.78L124.88 187.86C124.701 186.894 124.608 185.913 124.6 184.93C124.605 182.252 125.305 179.621 126.631 177.295C127.956 174.968 129.863 173.025 132.165 171.656C134.466 170.286 137.083 169.537 139.761 169.482C142.438 169.427 145.084 170.067 147.44 171.34L147.53 171.37Z" fill="#EA3D90"/>
<path d="M135.12 188.05C134.209 188.215 133.286 188.295 132.36 188.29C129.7 188.29 127.21 190.14 125.04 188.92L124.95 188C124.767 187.034 124.674 186.054 124.67 185.07C124.67 184.097 124.76 183.127 124.94 182.17C126.85 186.34 130.59 187 135.12 188.05Z" fill="#C60C6E"/>
<path d="M124.95 189.25C124.762 189.251 124.579 189.185 124.435 189.064C124.29 188.944 124.193 188.776 124.16 188.59C123.584 185.564 123.877 182.436 125.008 179.57C126.138 176.704 128.058 174.218 130.545 172.4C133.033 170.582 135.985 169.507 139.058 169.3C142.132 169.093 145.202 169.762 147.91 171.23C148.082 171.341 148.205 171.512 148.256 171.71C148.307 171.908 148.281 172.118 148.183 172.297C148.086 172.477 147.924 172.613 147.731 172.678C147.538 172.744 147.327 172.734 147.14 172.65C144.7 171.328 141.934 170.725 139.165 170.912C136.396 171.099 133.737 172.067 131.496 173.705C129.255 175.343 127.524 177.582 126.506 180.164C125.487 182.746 125.221 185.564 125.74 188.29C125.762 188.394 125.762 188.501 125.742 188.606C125.721 188.71 125.68 188.809 125.62 188.896C125.56 188.984 125.483 189.059 125.394 189.116C125.305 189.174 125.205 189.212 125.1 189.23L124.95 189.25Z" fill="#181828"/>
<path d="M128.62 177.49C128.536 177.493 128.454 177.464 128.39 177.41C128.347 177.38 128.311 177.341 128.283 177.296C128.256 177.251 128.237 177.201 128.229 177.149C128.22 177.097 128.222 177.044 128.235 176.993C128.247 176.941 128.269 176.893 128.3 176.85C129.56 175.17 131.16 173.772 132.994 172.749C134.829 171.726 136.858 171.1 138.95 170.91C139.006 170.898 139.063 170.898 139.119 170.909C139.175 170.921 139.227 170.944 139.273 170.978C139.319 171.011 139.358 171.054 139.386 171.104C139.414 171.154 139.431 171.209 139.436 171.265C139.441 171.322 139.434 171.379 139.415 171.433C139.396 171.487 139.366 171.536 139.327 171.577C139.287 171.618 139.24 171.651 139.187 171.672C139.134 171.693 139.077 171.703 139.02 171.7C137.041 171.881 135.122 172.476 133.387 173.446C131.652 174.416 130.141 175.739 128.95 177.33C128.915 177.384 128.865 177.427 128.807 177.456C128.749 177.484 128.684 177.496 128.62 177.49Z" fill="#FF7DC7"/>
<path d="M130.999 177.13C131.479 176.442 131.513 175.636 131.073 175.329C130.634 175.022 129.889 175.332 129.408 176.02C128.927 176.708 128.894 177.515 129.333 177.822C129.773 178.128 130.518 177.819 130.999 177.13Z" fill="#FF7DC7"/>
<path d="M132.85 176.29C133.121 176.29 133.34 176.071 133.34 175.8C133.34 175.53 133.121 175.31 132.85 175.31C132.58 175.31 132.36 175.53 132.36 175.8C132.36 176.071 132.58 176.29 132.85 176.29Z" fill="#FF7DC7"/>
<path d="M131.86 178.92C132.131 178.92 132.35 178.701 132.35 178.43C132.35 178.16 132.131 177.94 131.86 177.94C131.59 177.94 131.37 178.16 131.37 178.43C131.37 178.701 131.59 178.92 131.86 178.92Z" fill="#FF7DC7"/>
<path d="M148.45 171.06H110.06C109.723 171.06 109.4 170.927 109.162 170.688C108.924 170.45 108.79 170.127 108.79 169.79V155.9C108.818 155.584 108.964 155.29 109.198 155.076C109.432 154.862 109.738 154.743 110.055 154.743C110.373 154.743 110.678 154.862 110.912 155.076C111.147 155.29 111.292 155.584 111.32 155.9V168.52H148.45C148.787 168.52 149.11 168.654 149.348 168.892C149.586 169.13 149.72 169.454 149.72 169.79C149.72 170.127 149.586 170.45 149.348 170.688C149.11 170.927 148.787 171.06 148.45 171.06Z" fill="#181828"/>
<path d="M126.88 190.94H124.76C118.393 190.932 112.288 188.403 107.781 183.905C103.274 179.407 100.731 173.308 100.71 166.94V157.52C100.71 156.616 101.069 155.749 101.709 155.109C102.348 154.47 103.216 154.11 104.12 154.11H147.51C148.413 154.11 149.279 154.468 149.918 155.106C150.557 155.743 150.917 156.608 150.92 157.51V166.92C150.921 170.079 150.3 173.208 149.092 176.127C147.884 179.046 146.113 181.698 143.88 183.933C141.646 186.167 138.995 187.939 136.076 189.149C133.157 190.358 130.029 190.98 126.87 190.98L126.88 190.94ZM104.12 156.49C103.858 156.491 103.606 156.596 103.42 156.78C103.235 156.967 103.131 157.218 103.13 157.48V166.9C103.138 172.631 105.419 178.124 109.472 182.176C113.525 186.227 119.02 188.505 124.75 188.51H126.87C129.711 188.514 132.525 187.957 135.151 186.872C137.776 185.786 140.162 184.193 142.17 182.183C144.179 180.174 145.771 177.788 146.855 175.162C147.94 172.536 148.495 169.721 148.49 166.88V157.48C148.49 157.215 148.385 156.961 148.197 156.773C148.01 156.586 147.755 156.48 147.49 156.48L104.12 156.49Z" fill="#181828"/>
<path d="M165.88 149.71H163.16C162.688 149.718 162.228 149.559 161.862 149.261C161.496 148.963 161.247 148.544 161.16 148.08L152.95 105.3C152.892 105.007 152.9 104.704 152.974 104.415C153.048 104.125 153.186 103.856 153.378 103.626C153.57 103.397 153.811 103.214 154.083 103.09C154.355 102.966 154.651 102.905 154.95 102.91H157.67C158.142 102.902 158.602 103.061 158.968 103.36C159.334 103.658 159.583 104.076 159.67 104.54L167.93 147.32C167.99 147.618 167.981 147.925 167.904 148.218C167.827 148.512 167.685 148.784 167.487 149.014C167.289 149.245 167.042 149.427 166.764 149.548C166.485 149.668 166.183 149.724 165.88 149.71Z" fill="white"/>
<path opacity="0.25" d="M154.95 148.44C154.478 148.448 154.018 148.289 153.652 147.991C153.286 147.693 153.037 147.274 152.95 146.81L144.68 104C144.622 103.707 144.63 103.404 144.704 103.115C144.778 102.825 144.916 102.556 145.108 102.326C145.3 102.097 145.541 101.914 145.813 101.79C146.085 101.666 146.381 101.605 146.68 101.61C147.152 101.602 147.612 101.761 147.978 102.06C148.344 102.358 148.593 102.776 148.68 103.24L156.94 146.02C157.003 146.315 156.999 146.62 156.928 146.913C156.857 147.205 156.721 147.478 156.53 147.711C156.338 147.944 156.097 148.13 155.823 148.256C155.55 148.383 155.251 148.446 154.95 148.44Z" fill="white"/>
<path d="M155.53 98.5403C150.073 98.5384 144.737 100.155 140.198 103.186C135.66 106.217 132.122 110.526 130.032 115.567C127.943 120.609 127.396 126.158 128.46 131.51C129.524 136.863 132.152 141.78 136.011 145.639C139.87 149.499 144.787 152.126 150.14 153.191C155.493 154.255 161.041 153.708 166.083 151.618C171.125 149.529 175.434 145.991 178.465 141.452C181.495 136.914 183.112 131.578 183.11 126.12C183.11 118.806 180.204 111.791 175.032 106.618C169.86 101.446 162.845 98.5403 155.53 98.5403ZM155.53 146.24C151.548 146.242 147.655 145.063 144.343 142.852C141.031 140.641 138.449 137.497 136.924 133.818C135.4 130.14 135 126.091 135.776 122.186C136.553 118.28 138.47 114.692 141.286 111.876C144.102 109.06 147.69 107.143 151.595 106.367C155.501 105.59 159.549 105.99 163.228 107.515C166.907 109.039 170.051 111.621 172.262 114.933C174.473 118.245 175.652 122.138 175.65 126.12C175.65 131.456 173.53 136.574 169.757 140.347C165.984 144.121 160.866 146.24 155.53 146.24Z" fill="#6F6372"/>
<path d="M183.11 126.12C183.11 126.65 183.11 127.19 183.11 127.72C182.708 120.69 179.632 114.079 174.512 109.244C169.393 104.409 162.617 101.715 155.575 101.715C148.533 101.715 141.758 104.409 136.638 109.244C131.518 114.079 128.442 120.69 128.04 127.72C128.04 127.19 127.98 126.65 127.98 126.12C127.98 122.497 128.694 118.909 130.08 115.562C131.467 112.215 133.499 109.173 136.061 106.611C138.623 104.049 141.665 102.017 145.012 100.631C148.359 99.244 151.947 98.5303 155.57 98.5303C159.193 98.5303 162.781 99.244 166.128 100.631C169.476 102.017 172.517 104.049 175.079 106.611C177.641 109.173 179.674 112.215 181.06 115.562C182.447 118.909 183.16 122.497 183.16 126.12H183.11Z" fill="#928F93"/>
<path d="M155.76 154.56C150.056 154.56 144.48 152.869 139.738 149.7C134.995 146.531 131.298 142.027 129.115 136.757C126.933 131.487 126.361 125.688 127.474 120.094C128.587 114.5 131.334 109.361 135.367 105.327C139.401 101.294 144.539 98.5473 150.134 97.4345C155.728 96.3217 161.527 96.8928 166.797 99.0756C172.067 101.258 176.571 104.955 179.74 109.698C182.909 114.44 184.6 120.016 184.6 125.72C184.592 133.367 181.551 140.698 176.144 146.105C170.738 151.511 163.407 154.552 155.76 154.56ZM155.76 99.3803C150.55 99.3783 145.457 100.921 141.124 103.815C136.791 106.708 133.413 110.821 131.418 115.634C129.423 120.446 128.9 125.743 129.915 130.853C130.93 135.963 133.438 140.657 137.121 144.342C140.805 148.027 145.498 150.536 150.608 151.553C155.718 152.571 161.014 152.05 165.828 150.056C170.641 148.063 174.756 144.687 177.65 140.355C180.545 136.023 182.09 130.93 182.09 125.72C182.082 118.739 179.306 112.045 174.37 107.107C169.434 102.17 162.742 99.3909 155.76 99.3803Z" fill="#181828"/>
<path d="M155.76 147.09C151.531 147.092 147.396 145.84 143.878 143.491C140.361 141.143 137.619 137.804 136 133.897C134.38 129.99 133.956 125.69 134.78 121.542C135.605 117.394 137.642 113.583 140.632 110.592C143.623 107.602 147.433 105.565 151.582 104.741C155.73 103.916 160.029 104.34 163.937 105.96C167.844 107.579 171.183 110.321 173.531 113.838C175.88 117.356 177.132 121.491 177.13 125.72C177.122 131.386 174.868 136.817 170.862 140.822C166.856 144.828 161.425 147.082 155.76 147.09ZM155.76 106.85C152.028 106.85 148.38 107.957 145.277 110.03C142.173 112.104 139.755 115.051 138.327 118.499C136.898 121.947 136.525 125.741 137.253 129.402C137.981 133.062 139.778 136.424 142.417 139.063C145.056 141.702 148.418 143.5 152.079 144.228C155.739 144.956 159.533 144.582 162.981 143.154C166.429 141.726 169.376 139.307 171.45 136.204C173.523 133.101 174.63 129.452 174.63 125.72C174.627 120.717 172.639 115.918 169.1 112.38C165.562 108.842 160.764 106.853 155.76 106.85Z" fill="#181828"/>
<path d="M105.8 149.71H103.08C102.608 149.718 102.148 149.559 101.782 149.261C101.416 148.963 101.167 148.544 101.08 148.08L92.8502 105.3C92.7918 105.007 92.8 104.704 92.874 104.415C92.948 104.125 93.086 103.856 93.2779 103.626C93.4698 103.397 93.7106 103.214 93.9827 103.09C94.2548 102.966 94.5512 102.905 94.8502 102.91H97.5602C98.0323 102.902 98.4921 103.061 98.8582 103.36C99.2242 103.658 99.4729 104.076 99.5602 104.54L107.81 147.32C107.869 147.614 107.86 147.918 107.786 148.208C107.711 148.499 107.572 148.769 107.379 148.998C107.186 149.228 106.944 149.411 106.671 149.534C106.398 149.657 106.1 149.718 105.8 149.71Z" fill="white"/>
<path opacity="0.25" d="M94.8302 148.44C94.358 148.448 93.8982 148.289 93.5322 147.991C93.1661 147.693 92.9175 147.274 92.8302 146.81L84.6002 104C84.5418 103.707 84.55 103.404 84.624 103.115C84.698 102.825 84.836 102.556 85.0279 102.326C85.2198 102.097 85.4606 101.914 85.7327 101.79C86.0048 101.666 86.3012 101.605 86.6002 101.61C87.0723 101.602 87.5321 101.761 87.8982 102.06C88.2642 102.358 88.5129 102.776 88.6002 103.24L96.8502 146.02C96.9141 146.317 96.9096 146.625 96.8369 146.92C96.7641 147.215 96.6251 147.49 96.4304 147.723C96.2357 147.956 95.9904 148.142 95.7131 148.266C95.4358 148.391 95.1339 148.45 94.8302 148.44Z" fill="white"/>
<path d="M95.4402 98.5403C89.9829 98.5403 84.6483 100.159 80.1109 103.191C75.5736 106.223 72.0373 110.532 69.9494 115.574C67.8614 120.616 67.3157 126.164 68.381 131.517C69.4464 136.869 72.0751 141.785 75.9346 145.643C79.7942 149.501 84.7112 152.128 90.0637 153.191C95.4163 154.255 100.964 153.707 106.005 151.617C111.047 149.528 115.355 145.99 118.385 141.451C121.416 136.913 123.032 131.578 123.03 126.12C123.03 122.498 122.316 118.91 120.93 115.564C119.543 112.217 117.511 109.176 114.949 106.615C112.387 104.054 109.345 102.022 105.998 100.637C102.65 99.2514 99.0629 98.539 95.4402 98.5403ZM95.4402 146.24C91.458 146.242 87.5647 145.063 84.2528 142.852C80.9409 140.641 78.3592 137.497 76.8344 133.818C75.3095 130.14 74.9101 126.091 75.6865 122.186C76.4629 118.28 78.3803 114.692 81.1961 111.876C84.0119 109.06 87.5997 107.143 91.5055 106.367C95.4112 105.59 99.4595 105.99 103.138 107.515C106.817 109.039 109.961 111.621 112.172 114.933C114.383 118.245 115.562 122.138 115.56 126.12C115.56 131.456 113.44 136.574 109.667 140.347C105.894 144.121 100.776 146.24 95.4402 146.24Z" fill="#6F6372"/>
<path d="M123.03 126.12C123.03 126.65 123.03 127.19 122.97 127.72C122.547 120.706 119.463 114.117 114.346 109.3C109.23 104.483 102.467 101.8 95.4402 101.8C88.4128 101.8 81.6506 104.483 76.5341 109.3C71.4177 114.117 68.3331 120.706 67.9102 127.72C67.9102 127.19 67.8502 126.65 67.8502 126.12C67.8502 118.803 70.757 111.785 75.9311 106.611C81.1052 101.437 88.1228 98.5303 95.4402 98.5303C102.757 98.5303 109.775 101.437 114.949 106.611C120.123 111.785 123.03 118.803 123.03 126.12Z" fill="#928F93"/>
<path d="M95.6702 154.56C89.9661 154.56 84.3902 152.869 79.6475 149.7C74.9048 146.531 71.2083 142.027 69.0255 136.757C66.8426 131.487 66.2715 125.688 67.3843 120.094C68.4971 114.5 71.2438 109.361 75.2772 105.327C79.3105 101.294 84.4493 98.5473 90.0438 97.4345C95.6382 96.3217 101.437 96.8928 106.707 99.0756C111.977 101.258 116.481 104.955 119.65 109.698C122.819 114.44 124.51 120.016 124.51 125.72C124.5 133.366 121.458 140.695 116.051 146.102C110.645 151.508 103.316 154.55 95.6702 154.56ZM95.6702 99.3803C90.4606 99.3803 85.368 100.925 81.0364 103.819C76.7048 106.714 73.3288 110.827 71.3352 115.64C69.3416 120.453 68.8199 125.75 69.8363 130.859C70.8526 135.968 73.3613 140.662 77.045 144.346C80.7287 148.029 85.422 150.538 90.5315 151.554C95.6409 152.571 100.937 152.049 105.75 150.055C110.563 148.062 114.677 144.686 117.571 140.354C120.465 136.022 122.01 130.93 122.01 125.72C122.002 118.737 119.225 112.042 114.287 107.104C109.349 102.166 102.654 99.3883 95.6702 99.3803Z" fill="#181828"/>
<path d="M95.6702 147.09C91.4412 147.09 87.3072 145.836 83.791 143.486C80.2749 141.137 77.5346 137.797 75.9167 133.89C74.2987 129.983 73.876 125.683 74.7017 121.536C75.5275 117.388 77.5647 113.579 80.5558 110.589C83.5468 107.599 87.3573 105.564 91.5053 104.74C95.6532 103.916 99.9523 104.341 103.859 105.961C107.765 107.58 111.104 110.322 113.452 113.84C115.8 117.357 117.052 121.491 117.05 125.72C117.042 131.387 114.787 136.82 110.779 140.826C106.771 144.832 101.337 147.085 95.6702 147.09ZM95.6702 106.85C91.938 106.85 88.2897 107.957 85.1866 110.03C82.0834 112.104 79.6648 115.051 78.2366 118.499C76.8083 121.947 76.4346 125.741 77.1627 129.402C77.8909 133.062 79.688 136.424 82.3271 139.063C84.9661 141.702 88.3284 143.5 91.9888 144.228C95.6492 144.956 99.4433 144.582 102.891 143.154C106.339 141.726 109.287 139.307 111.36 136.204C113.433 133.101 114.54 129.452 114.54 125.72C114.535 120.717 112.545 115.921 109.007 112.383C105.47 108.845 100.673 106.856 95.6702 106.85Z" fill="#181828"/>
<path d="M102.742 192.761C103.245 191.246 102.946 189.784 102.076 189.495C101.206 189.207 100.093 190.201 99.5909 191.716C99.0887 193.231 99.387 194.693 100.257 194.981C101.127 195.27 102.24 194.276 102.742 192.761Z" fill="white"/>
<path opacity="0.55" d="M106.4 194.79C106.914 194.79 107.33 194.374 107.33 193.86C107.33 193.347 106.914 192.93 106.4 192.93C105.887 192.93 105.47 193.347 105.47 193.86C105.47 194.374 105.887 194.79 106.4 194.79Z" fill="white"/>
<path opacity="0.55" d="M103.56 194.8C103.751 194.8 103.934 194.876 104.069 195.011C104.204 195.146 104.28 195.329 104.28 195.52C104.28 195.711 104.204 195.894 104.069 196.029C103.934 196.164 103.751 196.24 103.56 196.24C103.369 196.24 103.186 196.164 103.051 196.029C102.916 195.894 102.84 195.711 102.84 195.52C102.84 195.329 102.916 195.146 103.051 195.011C103.186 194.876 103.369 194.8 103.56 194.8Z" fill="white"/>
<path opacity="0.55" d="M104.51 189.82C105.035 189.82 105.46 189.395 105.46 188.87C105.46 188.346 105.035 187.92 104.51 187.92C103.985 187.92 103.56 188.346 103.56 188.87C103.56 189.395 103.985 189.82 104.51 189.82Z" fill="white"/>
<path d="M163.39 196.22C163.226 196.221 163.063 196.186 162.913 196.119C162.763 196.052 162.629 195.953 162.52 195.83L157.95 190.78C157.762 190.547 157.67 190.25 157.694 189.951C157.718 189.652 157.856 189.374 158.079 189.174C158.302 188.974 158.594 188.867 158.894 188.876C159.194 188.884 159.479 189.008 159.69 189.22L164.22 194.27C164.427 194.501 164.533 194.805 164.516 195.114C164.499 195.423 164.36 195.713 164.13 195.92C163.925 196.103 163.664 196.209 163.39 196.22Z" fill="#181828"/>
<path d="M175.95 182.12C175.786 182.121 175.623 182.086 175.473 182.019C175.323 181.952 175.189 181.853 175.08 181.73L170.55 176.73C170.362 176.497 170.27 176.2 170.294 175.901C170.318 175.602 170.456 175.324 170.679 175.124C170.902 174.924 171.194 174.817 171.494 174.825C171.794 174.834 172.079 174.958 172.29 175.17L176.82 180.17C177.027 180.401 177.133 180.705 177.116 181.014C177.099 181.323 176.961 181.613 176.73 181.82C176.516 182.014 176.238 182.121 175.95 182.12Z" fill="#181828"/>
<path d="M145.21 205.2C144.969 205.2 144.733 205.124 144.536 204.985C144.34 204.845 144.191 204.648 144.11 204.42L141.85 198C141.783 197.852 141.748 197.692 141.746 197.53C141.744 197.368 141.777 197.207 141.84 197.057C141.904 196.908 141.999 196.774 142.117 196.663C142.236 196.552 142.376 196.467 142.529 196.413C142.683 196.36 142.845 196.339 143.007 196.351C143.169 196.364 143.327 196.41 143.47 196.487C143.613 196.564 143.738 196.67 143.838 196.798C143.938 196.926 144.01 197.073 144.05 197.23L146.31 203.62C146.362 203.765 146.385 203.918 146.378 204.071C146.37 204.225 146.332 204.375 146.266 204.514C146.2 204.652 146.107 204.776 145.993 204.879C145.879 204.981 145.745 205.06 145.6 205.11C145.477 205.165 145.345 205.195 145.21 205.2Z" fill="#181828"/>
<path d="M153.44 203.45C153.199 203.45 152.963 203.374 152.766 203.235C152.57 203.095 152.421 202.898 152.34 202.67L150.88 198.53C150.778 198.237 150.796 197.916 150.931 197.636C151.067 197.357 151.307 197.142 151.6 197.04C151.893 196.938 152.215 196.957 152.494 197.092C152.774 197.227 152.988 197.467 153.09 197.76L154.55 201.89C154.601 202.035 154.622 202.189 154.613 202.343C154.605 202.496 154.566 202.646 154.499 202.784C154.432 202.923 154.338 203.047 154.224 203.149C154.109 203.251 153.975 203.33 153.83 203.38C153.706 203.428 153.573 203.451 153.44 203.45Z" fill="#181828"/>
<path d="M154.08 185.55C153.873 185.547 153.671 185.487 153.495 185.378C153.319 185.269 153.176 185.114 153.08 184.93L151.42 181.85C151.305 181.719 151.221 181.564 151.174 181.395C151.127 181.227 151.118 181.051 151.148 180.879C151.178 180.707 151.246 180.544 151.347 180.401C151.448 180.259 151.58 180.141 151.733 180.057C151.885 179.972 152.055 179.922 152.229 179.912C152.403 179.901 152.578 179.93 152.74 179.995C152.902 180.061 153.047 180.162 153.164 180.291C153.282 180.42 153.369 180.573 153.42 180.74L155.08 183.83C155.154 183.965 155.2 184.112 155.216 184.265C155.232 184.417 155.218 184.571 155.175 184.718C155.131 184.865 155.058 185.002 154.962 185.121C154.865 185.24 154.745 185.338 154.61 185.41C154.446 185.496 154.265 185.543 154.08 185.55Z" fill="#181828"/>
<path d="M165.32 182.94C165.127 182.95 164.934 182.911 164.759 182.828C164.584 182.744 164.433 182.618 164.32 182.46L162.24 179.57C162.083 179.319 162.028 179.018 162.085 178.727C162.142 178.436 162.307 178.178 162.546 178.004C162.786 177.83 163.083 177.754 163.377 177.79C163.671 177.827 163.94 177.973 164.13 178.2L166.22 181.1C166.397 181.352 166.468 181.663 166.417 181.966C166.367 182.269 166.199 182.54 165.95 182.72C165.767 182.854 165.547 182.931 165.32 182.94Z" fill="#181828"/>
<path d="M87.2602 196.22C86.9724 196.218 86.6953 196.111 86.4802 195.92C86.2498 195.713 86.111 195.423 86.0941 195.114C86.0772 194.805 86.1837 194.501 86.3902 194.27L90.9202 189.22C91.0199 189.097 91.1437 188.995 91.2841 188.921C91.4244 188.847 91.5784 188.802 91.7365 188.789C91.8947 188.777 92.0539 188.796 92.2042 188.847C92.3546 188.898 92.4931 188.979 92.6112 189.085C92.7294 189.19 92.8248 189.319 92.8916 189.463C92.9584 189.607 92.9951 189.763 92.9997 189.922C93.0043 190.081 92.9766 190.238 92.9182 190.386C92.8598 190.534 92.772 190.668 92.6602 190.78L88.1302 195.83C88.0211 195.953 87.8871 196.052 87.7371 196.119C87.5871 196.186 87.4245 196.221 87.2602 196.22Z" fill="#181828"/>
<path d="M74.7002 182.12C74.4119 182.121 74.1339 182.014 73.9202 181.82C73.6898 181.613 73.551 181.323 73.5341 181.014C73.5172 180.705 73.6237 180.401 73.8302 180.17L78.3602 175.17C78.4599 175.047 78.5837 174.945 78.7241 174.871C78.8644 174.797 79.0184 174.752 79.1765 174.739C79.3347 174.727 79.4939 174.746 79.6442 174.797C79.7946 174.848 79.9331 174.929 80.0512 175.035C80.1694 175.14 80.2648 175.269 80.3316 175.413C80.3984 175.557 80.4352 175.713 80.4397 175.872C80.4443 176.031 80.4166 176.188 80.3582 176.336C80.2998 176.484 80.212 176.618 80.1002 176.73L75.5702 181.73C75.4611 181.853 75.3271 181.952 75.1771 182.019C75.0271 182.086 74.8645 182.121 74.7002 182.12Z" fill="#181828"/>
<path d="M105.44 205.2C105.307 205.201 105.175 205.178 105.05 205.13C104.905 205.08 104.772 205.001 104.657 204.899C104.543 204.796 104.45 204.672 104.384 204.534C104.318 204.395 104.28 204.245 104.272 204.091C104.265 203.938 104.288 203.785 104.34 203.64L106.6 197.25C106.64 197.093 106.712 196.946 106.812 196.818C106.912 196.69 107.038 196.584 107.181 196.507C107.324 196.43 107.481 196.384 107.643 196.371C107.805 196.359 107.968 196.38 108.121 196.434C108.274 196.487 108.414 196.572 108.533 196.683C108.652 196.794 108.746 196.928 108.81 197.077C108.874 197.227 108.906 197.388 108.904 197.55C108.903 197.712 108.867 197.872 108.8 198.02L106.54 204.42C106.46 204.648 106.311 204.845 106.114 204.985C105.917 205.124 105.682 205.2 105.44 205.2Z" fill="#181828"/>
<path d="M97.2102 203.45C97.0768 203.453 96.9442 203.429 96.8202 203.38C96.675 203.33 96.5413 203.251 96.4266 203.149C96.3118 203.047 96.2184 202.923 96.1515 202.784C96.0847 202.646 96.0457 202.496 96.0369 202.343C96.0281 202.189 96.0496 202.035 96.1002 201.89L97.5602 197.76C97.6623 197.467 97.8766 197.227 98.156 197.092C98.4355 196.957 98.7571 196.938 99.0502 197.04C99.3432 197.142 99.5837 197.357 99.7188 197.636C99.8538 197.916 99.8723 198.237 99.7702 198.53L98.3102 202.67C98.2297 202.898 98.0808 203.095 97.8839 203.235C97.6869 203.374 97.4516 203.45 97.2102 203.45Z" fill="#181828"/>
<path d="M96.5702 185.55C96.3785 185.546 96.1904 185.499 96.0202 185.41C95.885 185.338 95.7656 185.24 95.6687 185.121C95.5718 185.002 95.4994 184.865 95.4557 184.718C95.412 184.571 95.3979 184.417 95.4141 184.265C95.4303 184.112 95.4765 183.965 95.5502 183.83L97.2102 180.74C97.2748 180.592 97.3696 180.458 97.4886 180.348C97.6076 180.238 97.7482 180.153 97.9015 180.1C98.0548 180.047 98.2175 180.027 98.3791 180.04C98.5407 180.053 98.6978 180.1 98.8405 180.177C98.9831 180.255 99.1081 180.361 99.2076 180.489C99.307 180.617 99.3788 180.764 99.4182 180.922C99.4577 181.079 99.464 181.243 99.4368 181.403C99.4096 181.562 99.3494 181.715 99.2602 181.85L97.6002 184.93C97.5024 185.119 97.3544 185.276 97.1726 185.386C96.9909 185.495 96.7823 185.552 96.5702 185.55Z" fill="#181828"/>
<path d="M85.3302 182.94C85.0859 182.941 84.8477 182.864 84.6502 182.72C84.4014 182.54 84.2337 182.269 84.1832 181.966C84.1326 181.663 84.2034 181.352 84.3802 181.1L86.4602 178.2C86.5501 178.076 86.6638 177.97 86.7946 177.889C86.9255 177.808 87.071 177.754 87.2228 177.729C87.3746 177.705 87.5298 177.71 87.6795 177.746C87.8292 177.781 87.9704 177.845 88.0951 177.935C88.2199 178.025 88.3257 178.139 88.4066 178.27C88.4874 178.401 88.5417 178.546 88.5663 178.698C88.5909 178.85 88.5853 179.005 88.55 179.155C88.5146 179.304 88.4501 179.446 88.3602 179.57L86.2801 182.46C86.1716 182.61 86.0287 182.732 85.8635 182.816C85.6982 182.899 85.5153 182.942 85.3302 182.94Z" fill="#181828"/>
<path d="M93.1702 172.66C92.971 172.655 92.7765 172.598 92.6051 172.497C92.4338 172.395 92.2913 172.251 92.1911 172.079C92.091 171.907 92.0365 171.712 92.0328 171.512C92.0291 171.313 92.0764 171.116 92.1702 170.94L93.8302 167.85C93.9774 167.577 94.2271 167.374 94.5243 167.285C94.6715 167.24 94.8259 167.226 94.9788 167.241C95.1316 167.257 95.2799 167.302 95.4152 167.375C95.5504 167.448 95.67 167.547 95.7671 167.666C95.8642 167.785 95.9368 167.922 95.9809 168.069C96.025 168.217 96.0397 168.371 96.0242 168.524C96.0086 168.677 95.9631 168.825 95.8902 168.96L94.2302 172.05C94.1278 172.241 93.9744 172.399 93.7871 172.506C93.5998 172.614 93.3861 172.667 93.1702 172.66Z" fill="#181828"/>
<path d="M81.9502 170.06C81.7064 170.058 81.4692 169.981 81.2702 169.84C81.1445 169.752 81.0377 169.639 80.956 169.509C80.8743 169.379 80.8193 169.233 80.7942 169.082C80.769 168.93 80.7743 168.775 80.8097 168.625C80.845 168.476 80.9098 168.335 81.0002 168.21L83.0802 165.32C83.1688 165.195 83.2814 165.088 83.4116 165.006C83.5418 164.924 83.687 164.869 83.8387 164.844C83.9904 164.819 84.1455 164.824 84.2951 164.86C84.4447 164.895 84.5858 164.96 84.7102 165.05C84.9596 165.233 85.1276 165.505 85.178 165.81C85.2285 166.115 85.1575 166.427 84.9802 166.68L82.9002 169.57C82.7921 169.722 82.6496 169.845 82.4844 169.93C82.3192 170.015 82.1361 170.06 81.9502 170.06Z" fill="#181828"/>
<path d="M162.06 171.08C161.854 171.077 161.653 171.018 161.478 170.911C161.302 170.804 161.158 170.652 161.06 170.47L159.4 167.38C159.311 167.245 159.251 167.092 159.224 166.933C159.196 166.773 159.203 166.609 159.242 166.452C159.282 166.294 159.353 166.147 159.453 166.019C159.552 165.891 159.677 165.785 159.82 165.707C159.962 165.63 160.12 165.584 160.281 165.57C160.443 165.557 160.606 165.577 160.759 165.63C160.912 165.683 161.053 165.768 161.172 165.878C161.291 165.988 161.386 166.122 161.45 166.27L163.12 169.36C163.214 169.536 163.261 169.733 163.258 169.932C163.254 170.132 163.199 170.327 163.099 170.499C162.999 170.671 162.857 170.815 162.685 170.917C162.514 171.018 162.319 171.075 162.12 171.08H162.06Z" fill="#181828"/>
<path d="M173.3 168.48C173.106 168.488 172.913 168.447 172.738 168.362C172.563 168.276 172.413 168.149 172.3 167.99L170.22 165.1C170.121 164.976 170.048 164.833 170.005 164.68C169.963 164.527 169.953 164.366 169.974 164.209C169.996 164.052 170.05 163.9 170.132 163.764C170.214 163.628 170.323 163.51 170.452 163.418C170.582 163.325 170.728 163.26 170.884 163.226C171.039 163.192 171.2 163.19 171.356 163.22C171.512 163.25 171.66 163.312 171.791 163.402C171.923 163.491 172.035 163.606 172.12 163.74L174.2 166.63C174.38 166.882 174.453 167.196 174.402 167.501C174.351 167.807 174.182 168.08 173.93 168.26C173.747 168.395 173.527 168.472 173.3 168.48Z" fill="#181828"/>
</svg>
