<svg width="24" height="24" viewBox="0 0 24 24" fill="none" xmlns="http://www.w3.org/2000/svg">
<path d="M12 1C17.514 1 23 6.486 23 12C23 17.514 17.514 23 12 23C6.486 23 1 17.514 1 12C1 6.486 6.486 1 12 1ZM12 0C5.373 0 0 5.373 0 12C0 18.627 5.373 24 12 24C18.627 24 24 18.627 24 12C24 5.373 18.627 0 12 0Z" fill="black"/>
<g clip-path="url(#clip0)">
<path d="M12.3525 5.9885C12.244 5.93072 12.1229 5.9005 12 5.9005C11.8771 5.9005 11.756 5.93072 11.6475 5.9885L7.1475 8.3885C7.02752 8.45239 6.92715 8.54768 6.85714 8.6642C6.78712 8.78071 6.75009 8.91407 6.75 9.05V9.6635L11.043 12.2622L12 11.6877L12.957 12.2622L17.25 9.6635V9.05C17.2499 8.91407 17.2129 8.78071 17.1429 8.6642C17.0728 8.54768 16.9725 8.45239 16.8525 8.3885L12.3525 5.9885V5.9885ZM17.25 10.541L13.6845 12.6987L17.25 14.8377V10.5402V10.541ZM17.2238 15.6965L12 12.5622L6.77625 15.6972C6.81953 15.856 6.91384 15.9962 7.04463 16.096C7.17542 16.1959 7.33543 16.25 7.5 16.25H16.5C16.6647 16.25 16.8248 16.1958 16.9556 16.0958C17.0864 15.9957 17.1806 15.8554 17.2238 15.6965ZM6.75 14.8377L10.3155 12.6987L6.75 10.5402V14.8377ZM11.2943 5.32625C11.5115 5.21043 11.7538 5.14985 12 5.14985C12.2462 5.14985 12.4885 5.21043 12.7057 5.32625L17.2057 7.72625C17.4457 7.85419 17.6463 8.04494 17.7862 8.27811C17.9261 8.51127 18 8.77808 18 9.05V15.5C18 15.8978 17.842 16.2794 17.5607 16.5607C17.2794 16.842 16.8978 17 16.5 17H7.5C7.10218 17 6.72064 16.842 6.43934 16.5607C6.15804 16.2794 6 15.8978 6 15.5V9.05C5.99997 8.77808 6.07386 8.51127 6.21376 8.27811C6.35366 8.04494 6.55431 7.85419 6.79425 7.72625L11.2943 5.32625V5.32625Z" fill="black"/>
</g>
<defs>
<clipPath id="clip0">
<rect width="12" height="12" fill="white" transform="translate(6 5)"/>
</clipPath>
</defs>
</svg>
