<svg width="24" height="24" viewBox="0 0 24 24" fill="none" xmlns="http://www.w3.org/2000/svg">
<path fill-rule="evenodd" clip-rule="evenodd" d="M22 2C22 0.89543 21.1046 0 20 0H4C2.89543 0 2 0.895431 2 2V22C2 23.1046 2.89543 24 4 24H15.1716C15.702 24 16.2107 23.7893 16.5858 23.4142L21.4142 18.5858C21.7893 18.2107 22 17.702 22 17.1716V2ZM15 21C15 22.1046 14.1046 23 13 23H5C3.89543 23 3 22.1046 3 21V3C3 1.89543 3.89543 1 5 1H19C20.1046 1 21 1.89543 21 3V15C21 16.1046 20.1046 17 19 17H17C15.8954 17 15 17.8954 15 19V21ZM16 19.3432C16 18.6014 16.6014 18 17.3432 18V18C18.5399 18 19.1392 19.4468 18.293 20.293V20.293C17.4468 21.1392 16 20.5399 16 19.3432V19.3432ZM13 19.5C13 19.2239 12.7761 19 12.5 19H5.5C5.22386 19 5 19.2239 5 19.5V19.5C5 19.7761 5.22386 20 5.5 20H12.5C12.7761 20 13 19.7761 13 19.5V19.5ZM13 16.5C13 16.2239 12.7761 16 12.5 16H5.5C5.22386 16 5 16.2239 5 16.5V16.5C5 16.7761 5.22386 17 5.5 17H12.5C12.7761 17 13 16.7761 13 16.5V16.5ZM18.5 14C18.7761 14 19 13.7761 19 13.5V13.5C19 13.2239 18.7761 13 18.5 13H5.5C5.22386 13 5 13.2239 5 13.5V13.5C5 13.7761 5.22386 14 5.5 14H18.5ZM19 10.5C19 10.2239 18.7761 10 18.5 10H15.5C15.2239 10 15 10.2239 15 10.5V10.5C15 10.7761 15.2239 11 15.5 11H18.5C18.7761 11 19 10.7761 19 10.5V10.5ZM13 10.219C12.9967 10.6513 12.6453 11 12.213 11H5.79201C5.35577 11 5.00166 10.6472 5 10.211V10.211C4.997 9.491 4.994 8.596 6.314 8.291C7.797 7.95 7.55 7.873 7.472 7.728C6.394 5.74 6.762 4.555 7.077 4.025C7.465 3.374 8.166 3 9 3C9.827 3 10.523 3.368 10.91 4.011C11.455 4.915 11.319 6.233 10.531 7.724C10.426 7.92 10.336 7.979 11.65 8.283C13.005 8.595 13.002 9.495 13 10.219V10.219ZM6.599 9.252C6.00838 9.38812 6.49491 10 7.10102 10H10.9543C11.5297 10 12.0207 9.39485 11.46 9.266V9.266C10.605 9.068 9.831 8.89 9.559 8.294C9.417 7.983 9.446 7.634 9.646 7.255C10.256 6.104 10.404 5.109 10.053 4.526C9.777 4.068 9.275 4 9 4C8.52 4 8.143 4.19 7.937 4.537C7.585 5.127 7.736 6.117 8.351 7.251C8.555 7.628 8.587 7.978 8.446 8.29C8.177 8.888 7.41 9.064 6.599 9.252V9.252ZM18.5 8C18.7761 8 19 7.77614 19 7.5V7.5C19 7.22386 18.7761 7 18.5 7H15.5C15.2239 7 15 7.22386 15 7.5V7.5C15 7.77614 15.2239 8 15.5 8H18.5ZM19 4.5C19 4.22386 18.7761 4 18.5 4H15.5C15.2239 4 15 4.22386 15 4.5V4.5C15 4.77614 15.2239 5 15.5 5H18.5C18.7761 5 19 4.77614 19 4.5V4.5Z" fill="black"/>
</svg>
